<svg width="270" height="270" viewBox="0 0 270 270" fill="none" xmlns="http://www.w3.org/2000/svg">
<circle cx="134.725" cy="134.725" r="134.725" fill="#F2F2F2"/>
<path d="M190.965 77.7394H189.745V44.3341C189.745 39.2064 187.708 34.2887 184.082 30.6628C180.457 27.037 175.539 25 170.411 25H99.6374C97.0984 25 94.5843 25.5001 92.2386 26.4717C89.8929 27.4433 87.7615 28.8675 85.9661 30.6628C84.1708 32.4581 82.7467 34.5895 81.775 36.9352C80.8034 39.2809 80.3033 41.7951 80.3033 44.334V227.598C80.3033 230.137 80.8034 232.651 81.775 234.997C82.7466 237.343 84.1708 239.474 85.9661 241.269C87.7614 243.065 89.8928 244.489 92.2385 245.461C94.5842 246.432 97.0984 246.932 99.6374 246.932H170.411C175.539 246.932 180.456 244.895 184.082 241.27C187.708 237.644 189.745 232.726 189.745 227.598V101.518H190.965L190.965 77.7394Z" fill="#E6E6E6"/>
<path d="M171.191 30.03H161.953C162.378 31.0716 162.54 32.2017 162.425 33.3207C162.31 34.4397 161.922 35.5134 161.295 36.447C160.667 37.3806 159.82 38.1457 158.827 38.6746C157.834 39.2036 156.727 39.4803 155.602 39.4804H115.056C113.932 39.4804 112.824 39.2036 111.831 38.6746C110.838 38.1457 109.991 37.3807 109.364 36.447C108.736 35.5134 108.348 34.4397 108.233 33.3207C108.118 32.2017 108.28 31.0716 108.705 30.03H100.077C96.2474 30.03 92.5749 31.5512 89.8671 34.2589C87.1594 36.9667 85.6382 40.6392 85.6382 44.4685V227.464C85.6382 229.36 86.0116 231.237 86.7372 232.989C87.4628 234.741 88.5264 236.333 89.8671 237.673C91.2079 239.014 92.7995 240.078 94.5513 240.803C96.3031 241.529 98.1806 241.902 100.077 241.902H171.191C173.087 241.902 174.965 241.529 176.717 240.803C178.468 240.078 180.06 239.014 181.401 237.673C182.741 236.333 183.805 234.741 184.531 232.989C185.256 231.237 185.63 229.36 185.63 227.464V44.4685C185.63 42.5724 185.256 40.6949 184.531 38.9431C183.805 37.1914 182.741 35.5997 181.401 34.2589C180.06 32.9182 178.468 31.8547 176.717 31.1291C174.965 30.4035 173.087 30.03 171.191 30.03V30.03Z" fill="white"/>
<path d="M178.747 80.6537H92.4863C92.0628 80.6532 91.6568 80.4847 91.3573 80.1853C91.0579 79.8858 90.8894 79.4798 90.8889 79.0563V57.6586C90.8894 57.2351 91.0579 56.829 91.3573 56.5296C91.6568 56.2301 92.0628 56.0617 92.4863 56.0612H178.747C179.171 56.0617 179.577 56.2301 179.876 56.5296C180.176 56.829 180.344 57.2351 180.345 57.6586V79.0563C180.344 79.4798 180.176 79.8858 179.876 80.1853C179.577 80.4847 179.171 80.6532 178.747 80.6537ZM92.4863 56.7001C92.2322 56.7004 91.9886 56.8015 91.8089 56.9811C91.6292 57.1608 91.5282 57.4045 91.5279 57.6586V79.0563C91.5282 79.3104 91.6292 79.554 91.8089 79.7337C91.9886 79.9134 92.2322 80.0145 92.4863 80.0147H178.747C179.001 80.0145 179.245 79.9134 179.425 79.7337C179.604 79.554 179.706 79.3104 179.706 79.0563V57.6586C179.706 57.4045 179.604 57.1608 179.425 56.9811C179.245 56.8015 179.001 56.7004 178.747 56.7001H92.4863Z" fill="#3F3D56"/>
<path d="M178.747 165.317H92.4863C92.0628 165.317 91.6568 165.148 91.3573 164.849C91.0579 164.549 90.8894 164.143 90.8889 163.72V124.111C90.8894 123.688 91.0579 123.282 91.3573 122.982C91.6568 122.683 92.0628 122.514 92.4863 122.514H178.747C179.171 122.514 179.577 122.683 179.876 122.982C180.176 123.282 180.344 123.688 180.345 124.111V163.72C180.344 164.143 180.176 164.549 179.876 164.849C179.577 165.148 179.171 165.317 178.747 165.317ZM92.4863 123.153C92.2322 123.153 91.9886 123.254 91.8089 123.434C91.6292 123.614 91.5282 123.857 91.5279 124.111V163.72C91.5282 163.974 91.6292 164.217 91.8089 164.397C91.9886 164.577 92.2322 164.678 92.4863 164.678H178.747C179.001 164.678 179.245 164.577 179.425 164.397C179.604 164.217 179.706 163.974 179.706 163.72V124.111C179.706 123.857 179.604 123.614 179.425 123.434C179.245 123.254 179.001 123.153 178.747 123.153L92.4863 123.153Z" fill="#3F3D56"/>
<path d="M178.108 113.88H139.77C139.347 113.879 138.941 113.711 138.641 113.412C138.342 113.112 138.173 112.706 138.173 112.283V90.8849C138.173 90.4614 138.342 90.0554 138.641 89.7559C138.941 89.4564 139.347 89.288 139.77 89.2875H178.108C178.532 89.288 178.938 89.4564 179.237 89.7559C179.537 90.0554 179.705 90.4614 179.706 90.8849V112.283C179.705 112.706 179.537 113.112 179.237 113.412C178.938 113.711 178.532 113.879 178.108 113.88ZM139.77 89.9264C139.516 89.9267 139.272 90.0278 139.093 90.2075C138.913 90.3872 138.812 90.6308 138.812 90.8849V112.283C138.812 112.537 138.913 112.78 139.093 112.96C139.272 113.14 139.516 113.241 139.77 113.241H178.108C178.362 113.241 178.606 113.14 178.786 112.96C178.966 112.78 179.067 112.537 179.067 112.283V90.8849C179.067 90.6308 178.966 90.3871 178.786 90.2074C178.606 90.0278 178.362 89.9267 178.108 89.9264L139.77 89.9264Z" fill="#E6E6E6"/>
<path d="M130.825 217.074H92.4863C92.0628 217.073 91.6568 216.905 91.3573 216.605C91.0579 216.306 90.8894 215.9 90.8889 215.476V175.548C90.8894 175.125 91.0579 174.719 91.3574 174.419C91.6568 174.12 92.0628 173.951 92.4863 173.951H130.825C131.248 173.951 131.654 174.12 131.954 174.419C132.253 174.719 132.422 175.125 132.422 175.548V215.476C132.422 215.9 132.253 216.306 131.954 216.605C131.654 216.905 131.248 217.073 130.825 217.074ZM92.4863 174.59C92.2322 174.59 91.9886 174.691 91.8089 174.871C91.6292 175.051 91.5282 175.294 91.5279 175.548V215.476C91.5282 215.73 91.6292 215.974 91.8089 216.154C91.9886 216.333 92.2322 216.434 92.4863 216.435H130.825C131.079 216.434 131.322 216.333 131.502 216.154C131.682 215.974 131.783 215.73 131.783 215.476V175.548C131.783 175.294 131.682 175.051 131.502 174.871C131.322 174.691 131.079 174.59 130.825 174.59H92.4863Z" fill="#E6E6E6"/>
<path d="M178.108 217.074H139.77C139.347 217.073 138.941 216.905 138.641 216.605C138.342 216.306 138.173 215.9 138.173 215.476V175.548C138.173 175.125 138.342 174.719 138.641 174.419C138.941 174.12 139.347 173.951 139.77 173.951H178.108C178.532 173.951 178.938 174.12 179.237 174.419C179.537 174.719 179.705 175.125 179.706 175.548V215.476C179.705 215.9 179.537 216.306 179.237 216.605C178.938 216.905 178.532 217.073 178.108 217.074ZM139.77 174.59C139.516 174.59 139.272 174.691 139.093 174.871C138.913 175.051 138.812 175.294 138.812 175.548V215.476C138.812 215.73 138.913 215.974 139.093 216.154C139.272 216.333 139.516 216.434 139.77 216.435H178.108C178.362 216.434 178.606 216.333 178.786 216.154C178.966 215.974 179.067 215.73 179.067 215.476V175.548C179.067 175.294 178.966 175.051 178.786 174.871C178.606 174.691 178.362 174.59 178.108 174.59H139.77Z" fill="#E6E6E6"/>
<path d="M105.251 143.052C108.844 143.052 111.758 140.139 111.758 136.545C111.758 132.951 108.844 130.038 105.251 130.038C101.657 130.038 98.7435 132.951 98.7435 136.545C98.7435 140.139 101.657 143.052 105.251 143.052Z" fill="#023047"/>
<path d="M120.279 132.207C119.991 132.207 119.715 132.321 119.512 132.525C119.309 132.728 119.194 133.004 119.194 133.292C119.194 133.579 119.309 133.855 119.512 134.058C119.715 134.262 119.991 134.376 120.279 134.376H171.406C171.693 134.375 171.968 134.261 172.171 134.058C172.374 133.854 172.488 133.579 172.488 133.292C172.488 133.004 172.374 132.729 172.171 132.526C171.968 132.322 171.693 132.208 171.406 132.207H120.279Z" fill="#023047"/>
<path d="M120.279 138.714C120.136 138.714 119.995 138.741 119.864 138.796C119.732 138.85 119.612 138.93 119.511 139.03C119.41 139.131 119.33 139.25 119.275 139.381C119.221 139.513 119.192 139.654 119.192 139.796C119.192 139.939 119.219 140.08 119.274 140.211C119.328 140.343 119.408 140.463 119.508 140.564C119.609 140.665 119.728 140.745 119.859 140.8C119.991 140.854 120.132 140.883 120.274 140.883H142.279C142.421 140.883 142.563 140.855 142.694 140.801C142.826 140.747 142.946 140.667 143.047 140.566C143.148 140.465 143.228 140.346 143.282 140.214C143.337 140.082 143.365 139.941 143.365 139.799C143.365 139.656 143.337 139.515 143.282 139.383C143.228 139.251 143.148 139.132 143.047 139.031C142.946 138.93 142.826 138.85 142.694 138.796C142.563 138.742 142.421 138.714 142.279 138.714H120.279Z" fill="#023047"/>
<path d="M100.26 149.117C99.4346 149.117 98.7632 149.604 98.7632 150.201C98.7632 150.799 99.4346 151.286 100.26 151.286H170.799C171.624 151.286 172.295 150.799 172.295 150.201C172.295 149.604 171.624 149.117 170.799 149.117H100.26Z" fill="#CCCCCC"/>
<path d="M100.26 155.624C99.4346 155.624 98.7632 156.11 98.7632 156.708C98.7632 157.306 99.4346 157.793 100.26 157.793H170.799C171.624 157.793 172.295 157.306 172.295 156.708C172.295 156.11 171.624 155.624 170.799 155.624H100.26Z" fill="#CCCCCC"/>
<path d="M105.89 74.0434C109.483 74.0434 112.397 71.1301 112.397 67.5364C112.397 63.9426 109.483 61.0293 105.89 61.0293C102.296 61.0293 99.3825 63.9426 99.3825 67.5364C99.3825 71.1301 102.296 74.0434 105.89 74.0434Z" fill="#023047"/>
<path d="M120.918 63.1982C120.631 63.1989 120.355 63.3135 120.153 63.5168C119.95 63.7201 119.836 63.9956 119.836 64.2828C119.836 64.5699 119.95 64.8454 120.153 65.0487C120.355 65.252 120.631 65.3666 120.918 65.3673H172.045C172.187 65.3677 172.328 65.3401 172.46 65.2859C172.592 65.2318 172.712 65.1522 172.813 65.0517C172.914 64.9511 172.994 64.8317 173.049 64.7002C173.104 64.5686 173.132 64.4276 173.133 64.285C173.133 64.1425 173.105 64.0013 173.051 63.8696C172.997 63.7378 172.917 63.618 172.816 63.5171C172.716 63.4162 172.596 63.336 172.464 63.2813C172.333 63.2266 172.192 63.1984 172.049 63.1982C172.048 63.1982 172.046 63.1982 172.045 63.1982H120.918Z" fill="#023047"/>
<path d="M120.918 69.7053C120.631 69.706 120.355 69.8206 120.153 70.0239C119.95 70.2272 119.836 70.5026 119.836 70.7898C119.836 71.077 119.95 71.3525 120.153 71.5558C120.355 71.7591 120.631 71.8737 120.918 71.8743H142.918C143.06 71.8748 143.202 71.8472 143.333 71.793C143.465 71.7388 143.585 71.6592 143.686 71.5587C143.787 71.4582 143.867 71.3388 143.922 71.2072C143.977 71.0757 144.005 70.9346 144.006 70.7921C144.006 70.6496 143.978 70.5084 143.924 70.3767C143.87 70.2449 143.79 70.1251 143.689 70.0242C143.589 69.9232 143.469 69.8431 143.338 69.7884C143.206 69.7337 143.065 69.7055 142.922 69.7053C142.921 69.7053 142.919 69.7053 142.918 69.7053H120.918Z" fill="#023047"/>
<path d="M130.791 113.884H94.826L103.29 99.2241C103.441 98.9613 103.66 98.7431 103.922 98.5914C104.185 98.4397 104.483 98.3599 104.787 98.3599C105.09 98.3599 105.388 98.4397 105.651 98.5914C105.913 98.7431 106.132 98.9613 106.283 99.2241L109.899 105.486L116.047 94.8384C116.237 94.5094 116.51 94.2362 116.839 94.0463C117.168 93.8563 117.541 93.7563 117.921 93.7563C118.301 93.7563 118.674 93.8563 119.003 94.0463C119.332 94.2362 119.605 94.5094 119.795 94.8384L130.791 113.884ZM95.9327 113.245H129.684L119.241 95.1578C119.107 94.926 118.915 94.7335 118.683 94.5996C118.451 94.4658 118.188 94.3953 117.921 94.3953C117.653 94.3953 117.39 94.4658 117.158 94.5996C116.926 94.7335 116.734 94.926 116.6 95.1578L109.899 106.764L105.73 99.5436C105.634 99.378 105.497 99.2404 105.331 99.1448C105.166 99.0492 104.978 98.9988 104.787 98.9988C104.595 98.9988 104.407 99.0492 104.242 99.1448C104.076 99.2404 103.939 99.378 103.843 99.5436L95.9327 113.245Z" fill="#E6E6E6"/>
<path d="M176.797 113.884H140.832L149.296 99.2241C149.447 98.9613 149.665 98.7431 149.928 98.5914C150.191 98.4397 150.489 98.3598 150.792 98.3598C151.096 98.3598 151.394 98.4397 151.657 98.5914C151.919 98.7431 152.137 98.9613 152.289 99.2241L155.905 105.486L162.052 94.8383C162.242 94.5094 162.516 94.2362 162.845 94.0463C163.173 93.8563 163.547 93.7563 163.926 93.7563C164.306 93.7563 164.679 93.8563 165.008 94.0463C165.337 94.2362 165.611 94.5094 165.8 94.8383L176.797 113.884ZM141.939 113.245H175.69L165.247 95.1578C165.113 94.926 164.921 94.7335 164.689 94.5996C164.457 94.4658 164.194 94.3953 163.927 94.3953C163.659 94.3953 163.396 94.4658 163.164 94.5996C162.932 94.7335 162.74 94.926 162.606 95.1578L155.905 106.764L151.736 99.5435C151.64 99.3779 151.503 99.2404 151.337 99.1448C151.171 99.0491 150.984 98.9988 150.792 98.9988C150.601 98.9988 150.413 99.0491 150.248 99.1448C150.082 99.2404 149.945 99.3779 149.849 99.5435L141.939 113.245Z" fill="#E6E6E6"/>
<path d="M130.825 113.88H92.4863C92.0628 113.879 91.6568 113.711 91.3573 113.412C91.0579 113.112 90.8894 112.706 90.8889 112.283V90.8849C90.8894 90.4614 91.0579 90.0554 91.3573 89.7559C91.6568 89.4564 92.0628 89.288 92.4863 89.2875H130.825C131.248 89.288 131.654 89.4564 131.954 89.7559C132.253 90.0554 132.422 90.4614 132.422 90.8849V112.283C132.422 112.706 132.253 113.112 131.954 113.412C131.654 113.711 131.248 113.879 130.825 113.88ZM92.4863 89.9264C92.2322 89.9267 91.9886 90.0278 91.8089 90.2075C91.6292 90.3872 91.5281 90.6308 91.5279 90.8849V112.283C91.5281 112.537 91.6292 112.78 91.8089 112.96C91.9886 113.14 92.2322 113.241 92.4863 113.241H130.825C131.079 113.241 131.322 113.14 131.502 112.96C131.682 112.78 131.783 112.537 131.783 112.283V90.8849C131.783 90.6308 131.682 90.3871 131.502 90.2074C131.322 90.0278 131.079 89.9267 130.825 89.9264L92.4863 89.9264Z" fill="#E6E6E6"/>
<path d="M100.655 182.185C100.513 182.185 100.372 182.212 100.24 182.267C100.108 182.321 99.9883 182.401 99.8874 182.502C99.7865 182.603 99.7065 182.722 99.6519 182.854C99.5973 182.986 99.5692 183.127 99.5692 183.269C99.5692 183.412 99.5973 183.553 99.6519 183.685C99.7065 183.816 99.7865 183.936 99.8874 184.037C99.9883 184.138 100.108 184.217 100.24 184.272C100.372 184.326 100.513 184.354 100.655 184.354H122.656C122.943 184.354 123.219 184.24 123.422 184.036C123.626 183.833 123.74 183.557 123.74 183.269C123.74 182.982 123.626 182.706 123.422 182.502C123.219 182.299 122.943 182.185 122.656 182.185H100.655Z" fill="#E6E6E6"/>
<path d="M100.655 188.574C100.513 188.574 100.372 188.602 100.24 188.656C100.108 188.711 99.9883 188.791 99.8874 188.891C99.7865 188.992 99.7065 189.112 99.6519 189.244C99.5973 189.375 99.5692 189.516 99.5692 189.659C99.5692 189.802 99.5973 189.943 99.6519 190.074C99.7065 190.206 99.7865 190.326 99.8874 190.426C99.9883 190.527 100.108 190.607 100.24 190.661C100.372 190.716 100.513 190.744 100.655 190.743H122.656C122.943 190.743 123.218 190.629 123.421 190.425C123.624 190.222 123.738 189.946 123.738 189.659C123.738 189.372 123.624 189.096 123.421 188.893C123.218 188.689 122.943 188.575 122.656 188.574H100.655Z" fill="#E6E6E6"/>
<path d="M111.656 208.84C110.305 208.84 108.986 208.439 107.863 207.689C106.74 206.939 105.865 205.873 105.349 204.626C104.832 203.378 104.697 202.006 104.96 200.681C105.224 199.357 105.874 198.141 106.829 197.186C107.783 196.232 109 195.581 110.324 195.318C111.648 195.055 113.021 195.19 114.268 195.706C115.515 196.223 116.582 197.098 117.332 198.221C118.082 199.343 118.482 200.663 118.482 202.013C118.48 203.823 117.76 205.558 116.48 206.838C115.201 208.118 113.465 208.838 111.656 208.84ZM111.656 195.826C110.432 195.826 109.236 196.189 108.218 196.869C107.2 197.548 106.407 198.515 105.939 199.645C105.471 200.776 105.348 202.02 105.587 203.22C105.826 204.421 106.415 205.523 107.28 206.389C108.146 207.254 109.248 207.843 110.448 208.082C111.649 208.321 112.893 208.198 114.023 207.73C115.154 207.261 116.12 206.468 116.8 205.451C117.48 204.433 117.843 203.237 117.843 202.013C117.841 200.373 117.189 198.8 116.029 197.64C114.869 196.48 113.296 195.828 111.656 195.826V195.826Z" fill="#E6E6E6"/>
<path d="M169.939 208.84C170.082 208.84 170.223 208.812 170.355 208.758C170.487 208.703 170.606 208.623 170.707 208.523C170.808 208.422 170.888 208.302 170.943 208.171C170.997 208.039 171.026 207.898 171.026 207.755C171.026 207.613 170.997 207.471 170.943 207.34C170.888 207.208 170.808 207.088 170.707 206.988C170.606 206.887 170.487 206.807 170.355 206.753C170.223 206.698 170.082 206.67 169.939 206.671H147.939C147.652 206.671 147.376 206.785 147.172 206.988C146.969 207.192 146.855 207.468 146.855 207.755C146.855 208.043 146.969 208.319 147.172 208.522C147.376 208.725 147.652 208.84 147.939 208.84H169.939Z" fill="#E6E6E6"/>
<path d="M169.939 202.45C170.082 202.45 170.223 202.422 170.355 202.368C170.487 202.314 170.606 202.234 170.707 202.133C170.808 202.032 170.888 201.913 170.943 201.781C170.997 201.649 171.026 201.508 171.026 201.366C171.026 201.223 170.997 201.082 170.943 200.95C170.888 200.818 170.808 200.699 170.707 200.598C170.606 200.497 170.487 200.418 170.355 200.363C170.223 200.309 170.082 200.281 169.939 200.281H147.939C147.652 200.281 147.376 200.395 147.172 200.599C146.969 200.802 146.855 201.078 146.855 201.366C146.855 201.653 146.969 201.929 147.172 202.132C147.376 202.336 147.652 202.45 147.939 202.45H169.939Z" fill="#E6E6E6"/>
<path d="M158.939 182.185C160.289 182.185 161.609 182.585 162.732 183.335C163.854 184.085 164.729 185.152 165.246 186.399C165.763 187.646 165.898 189.019 165.635 190.343C165.371 191.667 164.721 192.884 163.766 193.838C162.812 194.793 161.595 195.443 160.271 195.707C158.947 195.97 157.574 195.835 156.327 195.318C155.079 194.802 154.013 193.927 153.263 192.804C152.513 191.681 152.113 190.361 152.113 189.011V189.011C152.115 187.201 152.835 185.466 154.114 184.186C155.394 182.907 157.129 182.187 158.939 182.185ZM158.939 195.199C160.163 195.199 161.359 194.836 162.377 194.156C163.394 193.476 164.187 192.51 164.656 191.379C165.124 190.249 165.247 189.004 165.008 187.804C164.769 186.604 164.18 185.501 163.314 184.636C162.449 183.771 161.347 183.181 160.146 182.943C158.946 182.704 157.702 182.826 156.571 183.295C155.441 183.763 154.474 184.556 153.794 185.574C153.115 186.591 152.752 187.787 152.752 189.011V189.011C152.754 190.652 153.406 192.224 154.566 193.384C155.726 194.544 157.299 195.197 158.939 195.199V195.199Z" fill="#E6E6E6"/>
</svg>
