<svg width="269" height="269" viewBox="0 0 269 269" fill="none" xmlns="http://www.w3.org/2000/svg">
<g clip-path="url(#clip0_18_199)">
<path d="M269 134.5C269.047 166.249 257.816 196.983 237.311 221.222C236.566 222.107 235.808 222.977 235.035 223.842C225.944 234.067 215.353 242.853 203.626 249.9C200.936 251.515 198.187 253.037 195.379 254.466C195.095 254.61 194.806 254.754 194.522 254.894C194.183 255.066 193.838 255.234 193.494 255.401C186.388 258.879 178.987 261.717 171.378 263.881C170.587 264.104 169.794 264.321 169 264.532C158.99 267.181 148.708 268.663 138.358 268.949C137.818 268.963 137.288 268.972 136.776 268.981C136.594 268.986 136.417 268.991 136.241 268.991C135.659 268.995 135.082 269 134.5 269C123.593 269.008 112.725 267.691 102.136 265.077C101.075 264.816 100.019 264.542 98.9668 264.253C93.4265 262.74 87.9901 260.87 82.6919 258.654C79.8995 257.491 77.1567 256.236 74.4636 254.889C73.854 254.582 73.2443 254.275 72.6439 253.958C72.3879 253.833 72.1366 253.698 71.8853 253.567C57.5317 245.991 44.6597 235.893 33.8856 223.754C33.1409 222.921 32.4103 222.074 31.6889 221.222C19.8179 207.147 10.9628 190.785 5.67227 173.149C0.381699 155.513 -1.23177 136.978 0.93181 118.693C3.09539 100.408 8.98993 82.7622 18.2504 66.8478C27.5108 50.9334 39.9399 37.0897 54.768 26.174C55.5312 25.6108 56.2992 25.0524 57.0764 24.5079C57.2299 24.4008 57.3835 24.2938 57.5371 24.1867C71.1934 14.6209 86.5213 7.69892 102.727 3.77902C103.649 3.55098 104.57 3.3369 105.501 3.13678C123.055 -0.702896 141.196 -1.02086 158.873 2.20133C159.799 2.37352 160.725 2.55038 161.647 2.74119C177.708 6.03551 193.026 12.2559 206.837 21.0918C207.144 21.2873 207.451 21.4828 207.758 21.6875C208.377 22.0878 208.996 22.4973 209.606 22.9115C227.901 35.2112 242.888 51.8238 253.246 71.2842C263.604 90.7445 269.015 112.455 269 134.5Z" fill="#F2F2F2"/>
<path d="M100.526 204.082L57.5372 207.898L57.0764 207.94V24.5078C57.23 24.4007 57.3836 24.2937 57.5372 24.1867C66.4964 17.9199 76.1881 12.7717 86.3965 8.85645L88.5931 39.1539L88.7933 41.9276L90.9667 71.9737L91.6368 81.2165L100.447 203.011L100.526 204.082Z" fill="#CCCCCC"/>
<path d="M206.837 21.0919C207.144 21.2873 207.451 21.4828 207.758 21.6876V207.94L206.837 207.856L164.313 204.082L164.392 203.011L173.202 81.2166L173.873 71.9738L176.046 41.9277L176.246 39.1539L178.55 7.38123C188.485 10.8249 197.979 15.4268 206.837 21.0919Z" fill="#CCCCCC"/>
<path d="M206.837 21.0918V210.481C206.837 214.116 204.333 217.071 201.252 217.071H63.1219C60.5716 217.071 58.4074 215.042 57.7512 212.273C57.608 211.686 57.5361 211.085 57.5372 210.481V24.1867C57.3836 24.2938 57.23 24.4008 57.0764 24.5078C56.2992 25.0523 55.5313 25.6108 54.768 26.1739V210.481C54.7268 213.242 55.7578 215.911 57.6442 217.927C58.6334 218.964 59.8845 219.713 61.265 220.096C61.8702 220.261 62.4947 220.344 63.1219 220.343H201.252C201.881 220.343 202.507 220.26 203.114 220.096C206.827 219.095 209.606 215.167 209.606 210.481V22.9115C208.996 22.4973 208.377 22.0877 207.758 21.6875C207.451 21.4827 207.144 21.2873 206.837 21.0918Z" fill="#CCCCCC"/>
<path d="M208.222 39.1558H56.1527V41.9291H208.222V39.1558Z" fill="#CCCCCC"/>
<path d="M102.727 3.77909C103.649 3.55104 104.57 3.33696 105.501 3.13684V78.4429H102.727V3.77909Z" fill="#CCCCCC"/>
<path d="M158.873 2.20129C159.799 2.37349 160.725 2.55034 161.647 2.74116V78.4428H158.873V2.20129Z" fill="#CCCCCC"/>
<path d="M225.555 203.011H43.4402C40.1298 203.011 36.955 204.326 34.6141 206.667C32.2733 209.008 30.9583 212.183 30.9583 215.493C30.9583 218.804 32.2733 221.978 34.6141 224.319C36.955 226.66 40.1298 227.975 43.4402 227.975H225.555C227.328 227.976 229.08 227.598 230.695 226.866C232.31 226.135 233.75 225.068 234.919 223.735C235.448 223.133 235.919 222.482 236.324 221.79C236.638 221.26 236.911 220.706 237.139 220.133C237.899 218.24 238.183 216.188 237.966 214.159C237.749 212.13 237.038 210.186 235.895 208.496C234.751 206.805 233.211 205.422 231.408 204.465C229.605 203.509 227.596 203.01 225.555 203.011Z" fill="#CCCCCC"/>
<path d="M208.222 71.9733H57.0771V81.2176H208.222V71.9733Z" fill="#CCCCCC"/>
<path d="M131.263 69.2H134.036C134.704 69.2 135.365 69.3315 135.982 69.587C136.599 69.8425 137.16 70.217 137.632 70.6891C138.104 71.1613 138.478 71.7218 138.734 72.3386C138.989 72.9555 139.121 73.6167 139.121 74.2844H126.179C126.179 72.9359 126.714 71.6426 127.668 70.6891C128.621 69.7356 129.915 69.2 131.263 69.2H131.263Z" fill="#CCCCCC"/>
<path d="M237.311 221.222C233.268 226.013 228.895 230.515 224.224 234.696H44.7759C40.105 230.515 35.732 226.013 31.6889 221.222H237.311Z" fill="#3F3D56"/>
<path d="M149.523 174.557H119.309C119.147 174.555 118.985 174.58 118.83 174.631C118.502 174.733 118.215 174.937 118.012 175.213C117.808 175.489 117.699 175.824 117.699 176.167V223.898H151.138V176.167C151.138 175.955 151.096 175.746 151.015 175.55C150.933 175.354 150.814 175.177 150.664 175.027C150.514 174.878 150.336 174.759 150.14 174.678C149.945 174.598 149.735 174.556 149.523 174.557ZM138.088 198.106C138.089 198.88 137.834 199.633 137.362 200.247C136.912 200.843 136.286 201.282 135.573 201.503C134.86 201.724 134.095 201.716 133.387 201.48C132.678 201.243 132.062 200.79 131.625 200.185C131.188 199.58 130.951 198.853 130.949 198.106V192.568C130.958 191.627 131.338 190.727 132.006 190.065C132.675 189.403 133.578 189.031 134.519 189.031C135.46 189.031 136.363 189.403 137.031 190.065C137.7 190.727 138.08 191.627 138.088 192.568V198.106Z" fill="#2F2E41"/>
<path d="M117.597 222.372V226.975C117.597 227.213 117.691 227.442 117.859 227.611C118.028 227.781 118.256 227.876 118.495 227.877H150.342C150.581 227.875 150.809 227.779 150.977 227.61C151.145 227.441 151.24 227.213 151.24 226.975V222.372H117.597Z" fill="#3F3D56"/>
<path d="M199.553 100.07H70.4054C69.2958 100.071 68.2319 100.512 67.4468 101.297C66.6618 102.081 66.2195 103.144 66.2168 104.254V191.404C66.2177 192.515 66.6593 193.58 67.4446 194.365C68.2299 195.15 69.2948 195.592 70.4054 195.593H199.553C200.664 195.592 201.729 195.15 202.514 194.365C203.299 193.58 203.741 192.515 203.742 191.404V104.254C203.739 103.144 203.297 102.081 202.512 101.297C201.727 100.512 200.663 100.071 199.553 100.07Z" fill="#3F3D56"/>
<path d="M198.474 103.095H71.4804C70.8863 103.096 70.317 103.333 69.8973 103.754C69.4777 104.174 69.2419 104.744 69.2419 105.338V190.329C69.2429 190.923 69.4791 191.491 69.8987 191.911C70.3183 192.331 70.8871 192.567 71.4804 192.568H198.474C199.067 192.567 199.636 192.331 200.055 191.911C200.475 191.491 200.711 190.923 200.712 190.329V105.338C200.712 104.744 200.476 104.174 200.057 103.754C199.637 103.333 199.068 103.096 198.474 103.095Z" fill="#023047"/>
<path d="M175.101 227.803L173.928 222.232C173.88 222.005 173.775 221.794 173.624 221.617C173.473 221.441 173.28 221.305 173.063 221.222C172.906 221.161 172.738 221.129 172.57 221.129H99.3578C99.1889 221.129 99.0216 221.161 98.8644 221.222C98.6474 221.305 98.4545 221.441 98.3033 221.617C98.1521 221.794 98.0474 222.005 97.9988 222.232L96.826 227.803C96.7836 228.005 96.7869 228.214 96.8355 228.415C96.8841 228.616 96.9768 228.803 97.107 228.964C97.2371 229.124 97.4014 229.254 97.5879 229.343C97.7744 229.432 97.9783 229.478 98.185 229.478H173.738C173.945 229.479 174.15 229.434 174.337 229.344C174.524 229.255 174.688 229.124 174.817 228.962C174.948 228.802 175.041 228.615 175.09 228.414C175.139 228.214 175.143 228.005 175.101 227.803Z" fill="#2F2E41"/>
<path d="M101.994 222.132H100.122C99.9961 222.132 99.8944 222.234 99.8944 222.36V223.301C99.8944 223.427 99.9961 223.529 100.122 223.529H101.994C102.12 223.529 102.221 223.427 102.221 223.301V222.36C102.221 222.234 102.12 222.132 101.994 222.132Z" fill="#3F3D56"/>
<path d="M106.648 222.132H104.776C104.65 222.132 104.548 222.234 104.548 222.36V223.301C104.548 223.427 104.65 223.529 104.776 223.529H106.648C106.774 223.529 106.875 223.427 106.875 223.301V222.36C106.875 222.234 106.774 222.132 106.648 222.132Z" fill="#3F3D56"/>
<path d="M111.302 222.132H109.43C109.304 222.132 109.202 222.234 109.202 222.36V223.301C109.202 223.427 109.304 223.529 109.43 223.529H111.302C111.428 223.529 111.529 223.427 111.529 223.301V222.36C111.529 222.234 111.428 222.132 111.302 222.132Z" fill="#3F3D56"/>
<path d="M115.956 222.132H114.084C113.958 222.132 113.856 222.234 113.856 222.36V223.301C113.856 223.427 113.958 223.529 114.084 223.529H115.956C116.082 223.529 116.183 223.427 116.183 223.301V222.36C116.183 222.234 116.082 222.132 115.956 222.132Z" fill="#3F3D56"/>
<path d="M120.61 222.132H118.738C118.612 222.132 118.51 222.234 118.51 222.36V223.301C118.51 223.427 118.612 223.529 118.738 223.529H120.61C120.736 223.529 120.837 223.427 120.837 223.301V222.36C120.837 222.234 120.736 222.132 120.61 222.132Z" fill="#3F3D56"/>
<path d="M125.264 222.132H123.392C123.266 222.132 123.164 222.234 123.164 222.36V223.301C123.164 223.427 123.266 223.529 123.392 223.529H125.264C125.39 223.529 125.491 223.427 125.491 223.301V222.36C125.491 222.234 125.39 222.132 125.264 222.132Z" fill="#3F3D56"/>
<path d="M129.918 222.132H128.045C127.92 222.132 127.818 222.234 127.818 222.36V223.301C127.818 223.427 127.92 223.529 128.045 223.529H129.918C130.044 223.529 130.145 223.427 130.145 223.301V222.36C130.145 222.234 130.044 222.132 129.918 222.132Z" fill="#3F3D56"/>
<path d="M134.572 222.132H132.699C132.574 222.132 132.472 222.234 132.472 222.36V223.301C132.472 223.427 132.574 223.529 132.699 223.529H134.572C134.698 223.529 134.799 223.427 134.799 223.301V222.36C134.799 222.234 134.698 222.132 134.572 222.132Z" fill="#3F3D56"/>
<path d="M139.226 222.132H137.353C137.228 222.132 137.126 222.234 137.126 222.36V223.301C137.126 223.427 137.228 223.529 137.353 223.529H139.226C139.352 223.529 139.453 223.427 139.453 223.301V222.36C139.453 222.234 139.352 222.132 139.226 222.132Z" fill="#3F3D56"/>
<path d="M143.88 222.132H142.007C141.882 222.132 141.78 222.234 141.78 222.36V223.301C141.78 223.427 141.882 223.529 142.007 223.529H143.88C144.006 223.529 144.107 223.427 144.107 223.301V222.36C144.107 222.234 144.006 222.132 143.88 222.132Z" fill="#3F3D56"/>
<path d="M148.534 222.132H146.661C146.536 222.132 146.434 222.234 146.434 222.36V223.301C146.434 223.427 146.536 223.529 146.661 223.529H148.534C148.659 223.529 148.761 223.427 148.761 223.301V222.36C148.761 222.234 148.659 222.132 148.534 222.132Z" fill="#3F3D56"/>
<path d="M153.188 222.132H151.315C151.19 222.132 151.088 222.234 151.088 222.36V223.301C151.088 223.427 151.19 223.529 151.315 223.529H153.188C153.313 223.529 153.415 223.427 153.415 223.301V222.36C153.415 222.234 153.313 222.132 153.188 222.132Z" fill="#3F3D56"/>
<path d="M157.842 222.132H155.969C155.844 222.132 155.742 222.234 155.742 222.36V223.301C155.742 223.427 155.844 223.529 155.969 223.529H157.842C157.967 223.529 158.069 223.427 158.069 223.301V222.36C158.069 222.234 157.967 222.132 157.842 222.132Z" fill="#3F3D56"/>
<path d="M162.496 222.132H160.623C160.498 222.132 160.396 222.234 160.396 222.36V223.301C160.396 223.427 160.498 223.529 160.623 223.529H162.496C162.621 223.529 162.723 223.427 162.723 223.301V222.36C162.723 222.234 162.621 222.132 162.496 222.132Z" fill="#3F3D56"/>
<path d="M167.15 222.132H165.277C165.152 222.132 165.05 222.234 165.05 222.36V223.301C165.05 223.427 165.152 223.529 165.277 223.529H167.15C167.275 223.529 167.377 223.427 167.377 223.301V222.36C167.377 222.234 167.275 222.132 167.15 222.132Z" fill="#3F3D56"/>
<path d="M171.804 222.132H169.931C169.806 222.132 169.704 222.234 169.704 222.36V223.301C169.704 223.427 169.806 223.529 169.931 223.529H171.804C171.929 223.529 172.031 223.427 172.031 223.301V222.36C172.031 222.234 171.929 222.132 171.804 222.132Z" fill="#3F3D56"/>
<path d="M101.939 224.459H100.067C99.9411 224.459 99.8394 224.561 99.8394 224.687V225.628C99.8394 225.754 99.9411 225.856 100.067 225.856H101.939C102.065 225.856 102.166 225.754 102.166 225.628V224.687C102.166 224.561 102.065 224.459 101.939 224.459Z" fill="#3F3D56"/>
<path d="M106.593 224.459H104.721C104.595 224.459 104.493 224.561 104.493 224.687V225.628C104.493 225.754 104.595 225.856 104.721 225.856H106.593C106.719 225.856 106.82 225.754 106.82 225.628V224.687C106.82 224.561 106.719 224.459 106.593 224.459Z" fill="#3F3D56"/>
<path d="M111.247 224.459H109.375C109.249 224.459 109.147 224.561 109.147 224.687V225.628C109.147 225.754 109.249 225.856 109.375 225.856H111.247C111.373 225.856 111.474 225.754 111.474 225.628V224.687C111.474 224.561 111.373 224.459 111.247 224.459Z" fill="#3F3D56"/>
<path d="M115.901 224.459H114.029C113.903 224.459 113.801 224.561 113.801 224.687V225.628C113.801 225.754 113.903 225.856 114.029 225.856H115.901C116.027 225.856 116.128 225.754 116.128 225.628V224.687C116.128 224.561 116.027 224.459 115.901 224.459Z" fill="#3F3D56"/>
<path d="M120.555 224.459H118.683C118.557 224.459 118.455 224.561 118.455 224.687V225.628C118.455 225.754 118.557 225.856 118.683 225.856H120.555C120.681 225.856 120.782 225.754 120.782 225.628V224.687C120.782 224.561 120.681 224.459 120.555 224.459Z" fill="#3F3D56"/>
<path d="M125.209 224.459H123.337C123.211 224.459 123.109 224.561 123.109 224.687V225.628C123.109 225.754 123.211 225.856 123.337 225.856H125.209C125.335 225.856 125.436 225.754 125.436 225.628V224.687C125.436 224.561 125.335 224.459 125.209 224.459Z" fill="#3F3D56"/>
<path d="M129.863 224.459H127.991C127.865 224.459 127.763 224.561 127.763 224.687V225.628C127.763 225.754 127.865 225.856 127.991 225.856H129.863C129.989 225.856 130.09 225.754 130.09 225.628V224.687C130.09 224.561 129.989 224.459 129.863 224.459Z" fill="#3F3D56"/>
<path d="M134.517 224.459H132.644C132.519 224.459 132.417 224.561 132.417 224.687V225.628C132.417 225.754 132.519 225.856 132.644 225.856H134.517C134.643 225.856 134.744 225.754 134.744 225.628V224.687C134.744 224.561 134.643 224.459 134.517 224.459Z" fill="#3F3D56"/>
<path d="M139.171 224.459H137.298C137.173 224.459 137.071 224.561 137.071 224.687V225.628C137.071 225.754 137.173 225.856 137.298 225.856H139.171C139.297 225.856 139.398 225.754 139.398 225.628V224.687C139.398 224.561 139.297 224.459 139.171 224.459Z" fill="#3F3D56"/>
<path d="M143.825 224.459H141.952C141.827 224.459 141.725 224.561 141.725 224.687V225.628C141.725 225.754 141.827 225.856 141.952 225.856H143.825C143.95 225.856 144.052 225.754 144.052 225.628V224.687C144.052 224.561 143.95 224.459 143.825 224.459Z" fill="#3F3D56"/>
<path d="M148.479 224.459H146.606C146.481 224.459 146.379 224.561 146.379 224.687V225.628C146.379 225.754 146.481 225.856 146.606 225.856H148.479C148.604 225.856 148.706 225.754 148.706 225.628V224.687C148.706 224.561 148.604 224.459 148.479 224.459Z" fill="#3F3D56"/>
<path d="M153.133 224.459H151.26C151.135 224.459 151.033 224.561 151.033 224.687V225.628C151.033 225.754 151.135 225.856 151.26 225.856H153.133C153.258 225.856 153.36 225.754 153.36 225.628V224.687C153.36 224.561 153.258 224.459 153.133 224.459Z" fill="#3F3D56"/>
<path d="M157.787 224.459H155.914C155.789 224.459 155.687 224.561 155.687 224.687V225.628C155.687 225.754 155.789 225.856 155.914 225.856H157.787C157.912 225.856 158.014 225.754 158.014 225.628V224.687C158.014 224.561 157.912 224.459 157.787 224.459Z" fill="#3F3D56"/>
<path d="M162.441 224.459H160.568C160.443 224.459 160.341 224.561 160.341 224.687V225.628C160.341 225.754 160.443 225.856 160.568 225.856H162.441C162.566 225.856 162.668 225.754 162.668 225.628V224.687C162.668 224.561 162.566 224.459 162.441 224.459Z" fill="#3F3D56"/>
<path d="M167.095 224.459H165.222C165.097 224.459 164.995 224.561 164.995 224.687V225.628C164.995 225.754 165.097 225.856 165.222 225.856H167.095C167.22 225.856 167.322 225.754 167.322 225.628V224.687C167.322 224.561 167.22 224.459 167.095 224.459Z" fill="#3F3D56"/>
<path d="M171.749 224.459H169.876C169.751 224.459 169.649 224.561 169.649 224.687V225.628C169.649 225.754 169.751 225.856 169.876 225.856H171.749C171.874 225.856 171.976 225.754 171.976 225.628V224.687C171.976 224.561 171.874 224.459 171.749 224.459Z" fill="#3F3D56"/>
<path d="M140.567 227.252H122.406C122.28 227.252 122.179 227.354 122.179 227.479V228.421C122.179 228.546 122.28 228.648 122.406 228.648H140.567C140.693 228.648 140.794 228.546 140.794 228.421V227.479C140.794 227.354 140.693 227.252 140.567 227.252Z" fill="#3F3D56"/>
<path d="M192.092 114.803H73.2652C73.1416 114.8 73.0241 114.749 72.9377 114.661C72.8513 114.572 72.8029 114.454 72.8029 114.33C72.8029 114.207 72.8513 114.088 72.9377 114C73.0241 113.911 73.1416 113.86 73.2652 113.858H192.092C192.216 113.86 192.333 113.911 192.42 114C192.506 114.088 192.554 114.207 192.554 114.33C192.554 114.454 192.506 114.572 192.42 114.661C192.333 114.749 192.216 114.8 192.092 114.803Z" fill="#3F3D56"/>
<path d="M81.3539 111.445C82.8833 111.445 84.1232 110.178 84.1232 108.614C84.1232 107.05 82.8833 105.783 81.3539 105.783C79.8244 105.783 78.5845 107.05 78.5845 108.614C78.5845 110.178 79.8244 111.445 81.3539 111.445Z" fill="#3F3D56"/>
<path d="M90.9206 111.445C92.45 111.445 93.6899 110.178 93.6899 108.614C93.6899 107.05 92.45 105.783 90.9206 105.783C89.3911 105.783 88.1513 107.05 88.1513 108.614C88.1513 110.178 89.3911 111.445 90.9206 111.445Z" fill="#3F3D56"/>
<path d="M100.487 111.445C102.017 111.445 103.257 110.178 103.257 108.614C103.257 107.05 102.017 105.783 100.487 105.783C98.9579 105.783 97.718 107.05 97.718 108.614C97.718 110.178 98.9579 111.445 100.487 111.445Z" fill="#3F3D56"/>
<path d="M186.331 106.483H179.537C179.402 106.486 179.274 106.542 179.181 106.638C179.087 106.734 179.034 106.863 179.034 106.997C179.034 107.132 179.087 107.261 179.181 107.357C179.274 107.453 179.402 107.508 179.537 107.512H186.331C186.467 107.51 186.595 107.455 186.69 107.358C186.785 107.262 186.838 107.132 186.838 106.997C186.838 106.862 186.785 106.732 186.69 106.636C186.595 106.54 186.467 106.485 186.331 106.483Z" fill="#3F3D56"/>
<path d="M186.331 108.414H179.537C179.402 108.417 179.274 108.473 179.18 108.569C179.086 108.665 179.034 108.794 179.034 108.929C179.034 109.063 179.086 109.192 179.18 109.288C179.274 109.384 179.402 109.44 179.537 109.443H186.331C186.467 109.441 186.596 109.386 186.691 109.29C186.786 109.194 186.839 109.064 186.839 108.929C186.839 108.793 186.786 108.663 186.691 108.567C186.596 108.471 186.467 108.416 186.331 108.414Z" fill="#3F3D56"/>
<path d="M186.331 110.346H179.537C179.402 110.349 179.274 110.405 179.181 110.501C179.087 110.597 179.034 110.726 179.034 110.86C179.034 110.994 179.087 111.123 179.181 111.22C179.274 111.316 179.402 111.371 179.537 111.374H186.331C186.467 111.372 186.595 111.317 186.69 111.221C186.785 111.125 186.838 110.995 186.838 110.86C186.838 110.725 186.785 110.595 186.69 110.499C186.595 110.403 186.467 110.348 186.331 110.346Z" fill="#3F3D56"/>
<path d="M83.5111 125.785H81.0696C80.3293 125.785 79.7292 126.385 79.7292 127.125C79.7292 127.865 80.3293 128.465 81.0696 128.465H83.5111C84.2514 128.465 84.8514 127.865 84.8514 127.125C84.8514 126.385 84.2514 125.785 83.5111 125.785Z" fill="#E6E6E6"/>
<path d="M111.435 125.785H108.993C108.253 125.785 107.653 126.385 107.653 127.125C107.653 127.865 108.253 128.465 108.993 128.465H111.435C112.175 128.465 112.775 127.865 112.775 127.125C112.775 126.385 112.175 125.785 111.435 125.785Z" fill="#E6E6E6"/>
<path d="M119.347 125.785H116.905C116.165 125.785 115.565 126.385 115.565 127.125C115.565 127.865 116.165 128.465 116.905 128.465H119.347C120.087 128.465 120.687 127.865 120.687 127.125C120.687 126.385 120.087 125.785 119.347 125.785Z" fill="#E6E6E6"/>
<path d="M103.84 125.561H88.6649C87.9247 125.561 87.3246 126.161 87.3246 126.901C87.3246 127.642 87.9247 128.242 88.6649 128.242H103.84C104.58 128.242 105.18 127.642 105.18 126.901C105.18 126.161 104.58 125.561 103.84 125.561Z" fill="#E6E6E6"/>
<path d="M141.071 125.561H125.897C125.157 125.561 124.556 126.161 124.556 126.901C124.556 127.642 125.157 128.242 125.897 128.242H141.071C141.812 128.242 142.412 127.642 142.412 126.901C142.412 126.161 141.812 125.561 141.071 125.561Z" fill="#E6E6E6"/>
<path d="M90.9575 131.835H88.5159C87.7757 131.835 87.1756 132.435 87.1756 133.175C87.1756 133.915 87.7757 134.515 88.5159 134.515H90.9575C91.6977 134.515 92.2978 133.915 92.2978 133.175C92.2978 132.435 91.6977 131.835 90.9575 131.835Z" fill="#E6E6E6"/>
<path d="M118.881 131.835H116.44C115.7 131.835 115.099 132.435 115.099 133.175C115.099 133.915 115.7 134.515 116.44 134.515H118.881C119.622 134.515 120.222 133.915 120.222 133.175C120.222 132.435 119.622 131.835 118.881 131.835Z" fill="#E6E6E6"/>
<path d="M126.793 131.835H124.352C123.611 131.835 123.011 132.435 123.011 133.175C123.011 133.915 123.611 134.515 124.352 134.515H126.793C127.533 134.515 128.133 133.915 128.133 133.175C128.133 132.435 127.533 131.835 126.793 131.835Z" fill="#E6E6E6"/>
<path d="M111.286 131.611H96.1113C95.3711 131.611 94.771 132.211 94.771 132.952C94.771 133.692 95.3711 134.292 96.1113 134.292H111.286C112.026 134.292 112.626 133.692 112.626 132.952C112.626 132.211 112.026 131.611 111.286 131.611Z" fill="#E6E6E6"/>
<path d="M148.518 131.611H133.343C132.603 131.611 132.003 132.211 132.003 132.952C132.003 133.692 132.603 134.292 133.343 134.292H148.518C149.258 134.292 149.858 133.692 149.858 132.952C149.858 132.211 149.258 131.611 148.518 131.611Z" fill="#E6E6E6"/>
<path d="M98.4038 137.885H95.9623C95.222 137.885 94.6219 138.485 94.6219 139.225C94.6219 139.966 95.222 140.566 95.9623 140.566H98.4038C99.1441 140.566 99.7442 139.966 99.7442 139.225C99.7442 138.485 99.1441 137.885 98.4038 137.885Z" fill="#E6E6E6"/>
<path d="M126.328 137.885H123.886C123.146 137.885 122.546 138.485 122.546 139.225C122.546 139.966 123.146 140.566 123.886 140.566H126.328C127.068 140.566 127.668 139.966 127.668 139.225C127.668 138.485 127.068 137.885 126.328 137.885Z" fill="#E6E6E6"/>
<path d="M134.239 137.885H131.798C131.058 137.885 130.458 138.485 130.458 139.225C130.458 139.966 131.058 140.566 131.798 140.566H134.239C134.98 140.566 135.58 139.966 135.58 139.225C135.58 138.485 134.98 137.885 134.239 137.885Z" fill="#E6E6E6"/>
<path d="M118.732 137.661H103.558C102.817 137.661 102.217 138.262 102.217 139.002C102.217 139.742 102.817 140.342 103.558 140.342H118.732C119.473 140.342 120.073 139.742 120.073 139.002C120.073 138.262 119.473 137.661 118.732 137.661Z" fill="#E6E6E6"/>
<path d="M155.964 137.661H140.79C140.049 137.661 139.449 138.262 139.449 139.002C139.449 139.742 140.049 140.342 140.79 140.342H155.964C156.704 140.342 157.305 139.742 157.305 139.002C157.305 138.262 156.704 137.661 155.964 137.661Z" fill="#E6E6E6"/>
<path d="M105.85 143.935H103.409C102.668 143.935 102.068 144.535 102.068 145.275C102.068 146.016 102.668 146.616 103.409 146.616H105.85C106.59 146.616 107.191 146.016 107.191 145.275C107.191 144.535 106.59 143.935 105.85 143.935Z" fill="#E6E6E6"/>
<path d="M133.774 143.935H131.333C130.592 143.935 129.992 144.535 129.992 145.275C129.992 146.016 130.592 146.616 131.333 146.616H133.774C134.514 146.616 135.114 146.016 135.114 145.275C135.114 144.535 134.514 143.935 133.774 143.935Z" fill="#E6E6E6"/>
<path d="M141.686 143.935H139.244C138.504 143.935 137.904 144.535 137.904 145.275C137.904 146.016 138.504 146.616 139.244 146.616H141.686C142.426 146.616 143.026 146.016 143.026 145.275C143.026 144.535 142.426 143.935 141.686 143.935Z" fill="#E6E6E6"/>
<path d="M126.179 143.712H111.004C110.264 143.712 109.664 144.312 109.664 145.052C109.664 145.792 110.264 146.392 111.004 146.392H126.179C126.919 146.392 127.519 145.792 127.519 145.052C127.519 144.312 126.919 143.712 126.179 143.712Z" fill="#E6E6E6"/>
<path d="M111.435 167.993H108.993C108.253 167.993 107.653 168.593 107.653 169.333C107.653 170.074 108.253 170.674 108.993 170.674H111.435C112.175 170.674 112.775 170.074 112.775 169.333C112.775 168.593 112.175 167.993 111.435 167.993Z" fill="#E6E6E6"/>
<path d="M119.347 167.993H116.905C116.165 167.993 115.565 168.593 115.565 169.333C115.565 170.074 116.165 170.674 116.905 170.674H119.347C120.087 170.674 120.687 170.074 120.687 169.333C120.687 168.593 120.087 167.993 119.347 167.993Z" fill="#E6E6E6"/>
<path d="M141.071 168.217H125.897C125.157 168.217 124.556 168.817 124.556 169.557C124.556 170.297 125.157 170.897 125.897 170.897H141.071C141.812 170.897 142.412 170.297 142.412 169.557C142.412 168.817 141.812 168.217 141.071 168.217Z" fill="#E6E6E6"/>
<path d="M83.5111 167.993H81.0696C80.3293 167.993 79.7292 168.593 79.7292 169.333C79.7292 170.074 80.3293 170.674 81.0696 170.674H83.5111C84.2514 170.674 84.8514 170.074 84.8514 169.333C84.8514 168.593 84.2514 167.993 83.5111 167.993Z" fill="#E6E6E6"/>
<path d="M103.84 168.217H88.6649C87.9247 168.217 87.3246 168.817 87.3246 169.557C87.3246 170.297 87.9247 170.897 88.6649 170.897H103.84C104.58 170.897 105.18 170.297 105.18 169.557C105.18 168.817 104.58 168.217 103.84 168.217Z" fill="#E6E6E6"/>
<path d="M90.9575 161.943H88.5159C87.7757 161.943 87.1756 162.543 87.1756 163.283C87.1756 164.024 87.7757 164.624 88.5159 164.624H90.9575C91.6977 164.624 92.2978 164.024 92.2978 163.283C92.2978 162.543 91.6977 161.943 90.9575 161.943Z" fill="#E6E6E6"/>
<path d="M118.881 161.943H116.44C115.7 161.943 115.099 162.543 115.099 163.283C115.099 164.024 115.7 164.624 116.44 164.624H118.881C119.622 164.624 120.222 164.024 120.222 163.283C120.222 162.543 119.622 161.943 118.881 161.943Z" fill="#E6E6E6"/>
<path d="M126.793 161.943H124.352C123.611 161.943 123.011 162.543 123.011 163.283C123.011 164.024 123.611 164.624 124.352 164.624H126.793C127.533 164.624 128.133 164.024 128.133 163.283C128.133 162.543 127.533 161.943 126.793 161.943Z" fill="#E6E6E6"/>
<path d="M111.286 162.167H96.1113C95.3711 162.167 94.771 162.767 94.771 163.507C94.771 164.247 95.3711 164.847 96.1113 164.847H111.286C112.026 164.847 112.626 164.247 112.626 163.507C112.626 162.767 112.026 162.167 111.286 162.167Z" fill="#E6E6E6"/>
<path d="M98.4038 155.893H95.9623C95.222 155.893 94.6219 156.493 94.6219 157.233C94.6219 157.973 95.222 158.574 95.9623 158.574H98.4038C99.1441 158.574 99.7442 157.973 99.7442 157.233C99.7442 156.493 99.1441 155.893 98.4038 155.893Z" fill="#E6E6E6"/>
<path d="M126.328 155.893H123.886C123.146 155.893 122.546 156.493 122.546 157.233C122.546 157.973 123.146 158.574 123.886 158.574H126.328C127.068 158.574 127.668 157.973 127.668 157.233C127.668 156.493 127.068 155.893 126.328 155.893Z" fill="#E6E6E6"/>
<path d="M134.239 155.893H131.798C131.058 155.893 130.458 156.493 130.458 157.233C130.458 157.973 131.058 158.574 131.798 158.574H134.239C134.98 158.574 135.58 157.973 135.58 157.233C135.58 156.493 134.98 155.893 134.239 155.893Z" fill="#E6E6E6"/>
<path d="M118.732 156.116H103.558C102.817 156.116 102.217 156.716 102.217 157.457C102.217 158.197 102.817 158.797 103.558 158.797H118.732C119.473 158.797 120.073 158.197 120.073 157.457C120.073 156.716 119.473 156.116 118.732 156.116Z" fill="#E6E6E6"/>
<path d="M105.85 149.843H103.409C102.668 149.843 102.068 150.443 102.068 151.183C102.068 151.923 102.668 152.523 103.409 152.523H105.85C106.59 152.523 107.191 151.923 107.191 151.183C107.191 150.443 106.59 149.843 105.85 149.843Z" fill="#E6E6E6"/>
<path d="M133.774 149.843H131.333C130.592 149.843 129.992 150.443 129.992 151.183C129.992 151.923 130.592 152.523 131.333 152.523H133.774C134.514 152.523 135.114 151.923 135.114 151.183C135.114 150.443 134.514 149.843 133.774 149.843Z" fill="#E6E6E6"/>
<path d="M141.686 149.843H139.244C138.504 149.843 137.904 150.443 137.904 151.183C137.904 151.923 138.504 152.523 139.244 152.523H141.686C142.426 152.523 143.026 151.923 143.026 151.183C143.026 150.443 142.426 149.843 141.686 149.843Z" fill="#E6E6E6"/>
<path d="M126.179 150.066H111.004C110.264 150.066 109.664 150.666 109.664 151.406C109.664 152.147 110.264 152.747 111.004 152.747H126.179C126.919 152.747 127.519 152.147 127.519 151.406C127.519 150.666 126.919 150.066 126.179 150.066Z" fill="#E6E6E6"/>
<path d="M193.517 255.396C193.233 255.541 192.945 255.685 192.661 255.825C185.307 259.501 179.425 261.591 171.378 263.881C170.699 256.295 170.042 242.961 169.405 234.695C169.237 232.55 169.07 230.749 168.907 229.478C168.866 228.803 168.728 228.137 168.497 227.5L168.525 229.478L168.595 234.695L169 264.532C158.99 267.181 148.708 268.663 138.358 268.949C137.818 268.963 137.288 268.972 136.776 268.981C136.594 268.986 136.417 268.991 136.241 268.991C135.659 268.995 135.082 269 134.5 269C123.593 269.008 112.725 267.691 102.136 265.077C102.364 257.57 102.592 244.385 102.811 234.695C102.858 232.801 102.9 231.037 102.946 229.478C103.034 226.146 103.128 223.745 103.216 222.94C103.138 223.082 103.077 223.234 103.034 223.391C102.603 225.398 102.31 227.432 102.155 229.478C101.992 231.037 101.829 232.801 101.666 234.695C100.801 244.762 99.8977 258.449 98.9669 264.253C93.4266 262.74 87.9902 260.87 82.6919 258.654C79.8995 257.491 77.1568 256.236 74.4637 254.889C74.9756 251.538 75.5108 247.782 76.06 243.887C76.4882 240.867 76.9303 237.762 77.3817 234.695C78.0798 229.958 78.7965 225.313 79.5226 221.222C80.5837 215.247 81.6727 210.444 82.7524 208.238C83.7763 206.143 84.8002 204.077 85.7915 202.099C86.1359 201.406 86.4803 200.721 86.8153 200.056C86.8945 199.898 86.9736 199.744 87.0527 199.591C87.7648 198.19 88.4535 196.849 89.1098 195.593C89.6729 194.518 90.2081 193.503 90.7154 192.568C91.944 190.297 92.9865 188.486 93.7591 187.341C96.989 182.442 101.797 178.795 107.386 177.005L107.526 176.968L107.623 177.009L117.141 174.087L118.532 173.659L119.468 173.37L122.763 170.862L124.554 169.498L126.235 168.218L129.52 165.719L149.863 166.971L153.823 176.507L162.694 179.751L162.847 179.681L162.982 179.625L163.122 179.662C168.71 181.454 173.518 185.101 176.749 189.999C177.186 190.655 177.717 191.521 178.317 192.568C178.829 193.457 179.388 194.471 179.993 195.593C180.854 197.189 181.794 198.99 182.79 200.94C183.008 201.368 183.232 201.806 183.455 202.248C183.869 203.067 184.29 203.903 184.716 204.756C185.708 206.734 186.732 208.801 187.755 210.9C188.644 212.719 189.543 216.461 190.427 221.222C191.158 225.178 191.884 229.841 192.586 234.695C193.508 240.988 192.526 248.522 193.359 254.312C193.41 254.68 193.466 255.038 193.517 255.396Z" fill="#3F3D56"/>
<path d="M134.786 158.107C147.853 158.107 158.445 147.515 158.445 134.448C158.445 121.381 147.853 110.789 134.786 110.789C121.72 110.789 111.127 121.381 111.127 134.448C111.127 147.515 121.72 158.107 134.786 158.107Z" fill="#A0616A"/>
<path d="M173.803 103.095C173.335 102.003 172.713 100.984 171.955 100.07C168.362 95.6812 161.828 93.7498 155.122 98.9436C153.831 98.6552 152.485 98.7326 151.236 99.167C150.646 99.3806 150.093 99.6853 149.598 100.07C148.582 100.862 147.79 101.904 147.298 103.095C147.036 103.724 146.863 104.387 146.787 105.064C145.129 104.202 143.374 103.541 141.56 103.095C137.109 101.988 132.454 101.988 128.003 103.095C126.577 103.456 125.203 104 123.917 104.715C121.739 105.971 120.487 107.558 120.263 109.322C117.122 109.499 113.855 111.151 111.421 113.86C111.146 114.162 110.881 114.479 110.634 114.804C108.587 117.483 107.487 120.765 107.507 124.136V124.727H108.098C109.717 124.725 111.322 125.038 112.822 125.648C113.794 126.039 114.714 126.547 115.563 127.161C116.118 127.555 116.642 127.99 117.131 128.464C118.265 129.561 119.225 130.824 119.98 132.21C121.913 135.712 122.584 139.773 121.878 143.71C121.717 144.622 121.48 145.518 121.171 146.391C120.731 147.636 120.152 148.827 119.444 149.942C119.416 149.984 119.393 150.026 119.365 150.068C119.053 150.566 118.756 151.073 118.476 151.585C118.267 151.966 118.071 152.357 117.89 152.748C117.359 153.836 116.911 154.963 116.55 156.118C115.902 158.161 115.52 160.279 115.414 162.419C115.381 162.987 115.372 163.555 115.391 164.123C115.418 165.586 115.579 167.044 115.87 168.479C115.912 168.674 115.954 168.865 115.996 169.061L116.335 170.545L117.141 174.087L117.699 176.525L118.216 178.787L118.979 177.694C119.24 177.321 119.896 176.176 120.775 174.557C121.357 173.5 122.032 172.239 122.763 170.862C123.782 168.93 124.899 166.775 125.992 164.625C126.435 163.755 126.872 162.889 127.296 162.042C128.096 160.437 128.85 158.887 129.497 157.509C130.093 156.239 130.6 155.113 130.977 154.21C131.093 154.801 131.191 155.401 131.265 156.006C131.349 156.62 131.41 157.244 131.442 157.868C131.452 157.961 131.456 158.058 131.461 158.152L131.48 158.533L131.484 158.645L131.978 158.71C134.823 159.015 137.691 159.037 140.541 158.775H140.546C144.321 158.491 148.024 157.593 151.51 156.118C153.49 155.259 155.339 154.124 157.002 152.748C157.779 152.105 158.504 151.402 159.171 150.645C159.338 150.454 159.501 150.263 159.659 150.068C160.58 148.936 161.369 147.702 162.01 146.391C162.439 145.526 162.803 144.63 163.099 143.71C164.886 138.298 164.783 131.545 162.792 123.521C163.33 123.418 163.845 123.219 164.313 122.935C165.775 122.055 166.789 120.31 167.106 118.179L167.608 118.314C169.39 117.484 170.978 116.288 172.267 114.804C172.522 114.502 172.762 114.187 172.984 113.86C175.26 110.509 175.278 106.488 173.803 103.095Z" fill="#2F2E41"/>
<path opacity="0.2" d="M96.0209 221.202L99.9754 205.94L103.467 219.109L96.0209 221.202Z" fill="black"/>
<path d="M201.252 211.258C199.837 230.749 201.303 239.331 193.494 255.401C186.388 258.879 178.987 261.717 171.378 263.881C170.587 264.104 169.794 264.321 169 264.532C158.99 267.181 148.708 268.663 138.358 268.949C137.818 268.963 137.288 268.972 136.776 268.981C136.594 268.986 136.417 268.991 136.241 268.991C135.659 268.995 135.082 269 134.5 269C123.593 269.008 112.725 267.691 102.136 265.077C101.075 264.816 100.019 264.541 98.9669 264.253C93.4266 262.74 87.9902 260.87 82.6919 258.654C79.8995 257.491 77.1568 256.236 74.4637 254.889C73.854 254.582 73.2443 254.275 72.644 253.958C69.5584 248.532 67.8038 241.932 67.7666 234.002C69.9028 220.338 196.533 199.474 201.252 211.258Z" fill="#2F2E41"/>
<path opacity="0.2" d="M201.248 214.596C201.321 213.389 201.401 212.143 201.496 210.845C196.777 199.061 70.1464 219.925 68.0102 233.589C68.0161 234.842 68.0696 236.057 68.1597 237.244C73.3329 223.758 193.633 203.928 201.248 214.596Z" fill="black"/>
<path d="M75.9043 159.237C75.9352 158.815 75.8753 158.391 75.7287 157.994C75.582 157.597 75.3521 157.236 75.0543 156.936C74.7566 156.635 74.3979 156.402 74.0024 156.252C73.6069 156.102 73.1838 156.038 72.7616 156.065C72.6043 156.071 72.4478 156.09 72.2939 156.123L53.7887 160.304C53.3752 160.404 52.9872 160.59 52.6499 160.849C52.3125 161.108 52.0332 161.435 51.8299 161.809C51.5586 161.819 51.289 161.859 51.026 161.926C50.4501 162.057 49.9056 162.299 49.4236 162.64C48.9415 162.981 48.5313 163.414 48.2164 163.913C47.9015 164.413 47.688 164.969 47.5883 165.551C47.4885 166.133 47.5043 166.729 47.6348 167.305C47.7654 167.881 48.008 168.426 48.349 168.908C48.69 169.39 49.1225 169.8 49.622 170.115C50.6308 170.751 51.8509 170.96 53.0139 170.696C53.6759 170.543 54.2952 170.243 54.8264 169.819L61.0972 187.477C61.4104 188.03 61.8943 188.467 62.4766 188.723C63.0588 188.978 63.7082 189.039 64.3275 188.895L76.3574 186.176C76.972 186.032 77.5252 185.697 77.9375 185.219C78.3498 184.741 78.6 184.145 78.6523 183.516L75.9043 159.237ZM52.7362 169.439C51.9056 169.627 51.0346 169.477 50.3141 169.023C49.5937 168.569 49.0827 167.848 48.893 167.018C48.7034 166.188 48.8507 165.317 49.3026 164.595C49.7545 163.873 50.4742 163.36 51.3037 163.169C51.3622 163.154 51.4207 163.169 51.4791 163.154C51.4747 163.687 51.6109 164.211 51.8738 164.674L54.1686 168.679C53.7692 169.058 53.2739 169.321 52.7362 169.439Z" fill="#2F2E41"/>
<path d="M72.7616 156.065C72.937 158.403 68.9319 161.093 63.5675 162.16C58.6414 163.169 54.2271 162.467 52.9846 160.625C53.2344 160.477 53.5056 160.369 53.7886 160.304L72.2938 156.123C72.4478 156.09 72.6043 156.071 72.7616 156.065Z" fill="#3F3D56"/>
<path d="M59.9634 215.435L70.3575 210.238L61.6958 186.851L59.413 175.057C59.1165 173.525 58.4229 172.097 57.4018 170.917C56.3806 169.737 55.0676 168.845 53.5939 168.331C52.1202 167.818 50.5374 167.699 49.0038 167.989C47.4701 168.278 46.0393 168.965 44.8544 169.981C43.0984 171.486 41.9958 173.615 41.7794 175.917C41.5629 178.22 42.2496 180.517 43.6943 182.323L52.1679 192.915L59.9634 215.435Z" fill="#A0616A"/>
<path d="M70.3575 205.907L56.4987 212.837L67.0161 245.791C67.7713 248.157 69.1252 250.289 70.9464 251.978C72.7677 253.667 74.9945 254.857 77.411 255.432C80.3907 256.142 83.5188 255.884 86.3419 254.696C89.1651 253.508 91.5365 251.452 93.1124 248.825L121.001 201.022C122.978 197.728 123.588 193.792 122.701 190.054C121.815 186.317 119.502 183.074 116.256 181.019C114.511 179.913 112.552 179.188 110.508 178.889C108.464 178.591 106.379 178.726 104.391 179.287C102.402 179.847 100.554 180.82 98.9661 182.142C97.3784 183.464 96.0869 185.105 95.1755 186.959L78.1531 223.231L70.3575 205.907Z" fill="#3F3D56"/>
<path d="M66.071 176.126C66.0453 176.126 66.0197 176.122 65.9954 176.113L62.9696 175.071C62.9331 175.059 62.9002 175.037 62.874 175.009C62.8478 174.981 62.8291 174.946 62.8196 174.909C62.8101 174.871 62.8101 174.832 62.8196 174.795C62.8291 174.757 62.8478 174.723 62.8739 174.694L65.1243 172.244C65.145 172.221 65.1698 172.203 65.1976 172.19C65.2253 172.177 65.2553 172.17 65.2859 172.168C65.3165 172.167 65.3471 172.172 65.3759 172.182C65.4046 172.192 65.4311 172.208 65.4536 172.229C65.4762 172.25 65.4945 172.275 65.5074 172.303C65.5202 172.33 65.5275 172.36 65.5288 172.391C65.53 172.422 65.5252 172.452 65.5146 172.481C65.504 172.51 65.4878 172.536 65.467 172.559L63.4571 174.747L66.1467 175.673C66.1988 175.691 66.2428 175.727 66.271 175.774C66.2991 175.821 66.3096 175.877 66.3005 175.932C66.2915 175.986 66.2634 176.035 66.2214 176.071C66.1794 176.106 66.1261 176.126 66.071 176.126Z" fill="#023047"/>
<path d="M70.2185 175.277C70.1722 175.277 70.1269 175.263 70.0884 175.237C70.05 175.211 70.0202 175.174 70.0028 175.131C69.9854 175.088 69.9812 175.041 69.9908 174.996C70.0005 174.951 70.0234 174.909 70.0567 174.877L72.1019 172.899L69.3545 171.767C69.3262 171.756 69.3005 171.739 69.2788 171.717C69.2571 171.696 69.2399 171.67 69.2281 171.642C69.2163 171.613 69.2102 171.583 69.2102 171.553C69.2101 171.522 69.2161 171.492 69.2277 171.463C69.2394 171.435 69.2565 171.41 69.2781 171.388C69.2997 171.366 69.3253 171.349 69.3536 171.337C69.3818 171.326 69.4121 171.32 69.4427 171.32C69.4733 171.32 69.5035 171.326 69.5318 171.337L72.6078 172.605C72.6435 172.62 72.675 172.643 72.6994 172.673C72.7239 172.703 72.7405 172.738 72.7477 172.776C72.755 172.814 72.7527 172.853 72.741 172.89C72.7294 172.927 72.7087 172.96 72.6809 172.987L70.3803 175.211C70.3369 175.253 70.2789 175.277 70.2185 175.277Z" fill="#023047"/>
<path d="M66.7062 177.549C66.683 177.549 66.6599 177.546 66.6378 177.539C66.6086 177.53 66.5814 177.515 66.5578 177.496C66.5343 177.476 66.5148 177.452 66.5005 177.425C66.4862 177.398 66.4773 177.369 66.4744 177.338C66.4716 177.308 66.4747 177.277 66.4837 177.248L68.6314 170.267C68.6498 170.208 68.6907 170.159 68.7452 170.13C68.7998 170.102 68.8634 170.096 68.9223 170.114C68.9812 170.132 69.0304 170.173 69.0593 170.227C69.0882 170.282 69.0943 170.345 69.0764 170.404L66.9287 177.385C66.914 177.433 66.8845 177.474 66.8444 177.504C66.8044 177.533 66.756 177.549 66.7062 177.549Z" fill="#023047"/>
</g>
<defs>
<clipPath id="clip0_18_199">
<rect width="269" height="269" fill="white"/>
</clipPath>
</defs>
</svg>
