<svg width="479" height="398" viewBox="0 0 479 398" fill="none" xmlns="http://www.w3.org/2000/svg">
<g clip-path="url(#clip0_3_227)">
<path d="M276.034 19.3708C280.142 28.9948 271.436 31.7209 261.463 36.8793C251.49 42.0377 244.027 47.675 239.918 38.0509C235.81 28.4269 232.476 9.32479 246.585 2.02735C261.179 -5.52148 271.925 9.74666 276.034 19.3708Z" fill="#2F2E41"/>
<path d="M255.686 38.2975C263.101 38.2975 269.112 31.6812 269.112 23.5195C269.112 15.3578 263.101 8.74139 255.686 8.74139C248.271 8.74139 242.26 15.3578 242.26 23.5195C242.26 31.6812 248.271 38.2975 255.686 38.2975Z" fill="#FFB8B8"/>
<path d="M322.2 89.0572C321.736 88.3893 321.271 87.7335 320.801 87.0957C320.194 86.2654 319.584 85.4611 318.97 84.6829C312.011 75.8441 304.61 70.2785 296.46 69.6828H296.449L296.328 69.6708L280.088 87.0957L274.567 93.0163L274.687 93.3412L277.666 101.506H329.864C327.512 97.2097 324.954 93.0541 322.2 89.0572Z" fill="#023047"/>
<path d="M241.086 29.4691L245.892 26.9832L245.223 19.3518L248.437 25.6673L250.734 24.4792L250.343 20.0275L252.218 23.7115L269.286 14.8832C267.683 11.1281 264.79 8.22776 261.245 6.82023C257.699 5.4127 253.79 5.61327 250.379 7.3778L247.905 8.65728C244.494 10.4218 241.859 13.6058 240.58 17.5088C239.301 21.4117 239.483 25.714 241.086 29.4691Z" fill="#2F2E41"/>
<path d="M352.32 297.715H71.9849C69.5936 297.712 67.3011 296.665 65.6102 294.804C63.9193 292.943 62.9682 290.419 62.9655 287.787V102.375C62.9674 100.447 63.6642 98.5979 64.9029 97.2344C66.1417 95.8708 67.8212 95.1038 69.5731 95.1015H354.617C356.4 95.1038 358.108 95.8841 359.368 97.2712C360.629 98.6583 361.337 100.539 361.339 102.501V287.787C361.337 290.419 360.386 292.943 358.695 294.804C357.004 296.665 354.711 297.712 352.32 297.715Z" fill="#F2F2F2"/>
<path d="M80.7311 287.787H343.574C345.893 287.787 348.118 286.773 349.758 284.968C351.398 283.162 352.32 280.714 352.32 278.16V120.79C352.32 118.237 351.398 115.788 349.758 113.983C348.118 112.177 345.893 111.163 343.574 111.163H80.7311C78.4114 111.163 76.1868 112.177 74.5466 113.983C72.9064 115.788 71.9849 118.237 71.9849 120.79V278.16C71.9849 280.714 72.9064 283.162 74.5466 284.968C76.1868 286.773 78.4114 287.787 80.7311 287.787Z" fill="white"/>
<path d="M361.214 101.807H62.8389V96.7527C62.8423 94.1118 63.7974 91.5803 65.4944 89.7135C67.1914 87.8467 69.4919 86.7971 71.8912 86.7949H352.162C354.561 86.797 356.861 87.8467 358.558 89.7135C360.255 91.5803 361.21 94.1118 361.214 96.7527V101.807Z" fill="#8ECAE6"/>
<path d="M79.29 96.8932C80.5832 96.8932 81.6315 95.7393 81.6315 94.3159C81.6315 92.8925 80.5832 91.7386 79.29 91.7386C77.9969 91.7386 76.9486 92.8925 76.9486 94.3159C76.9486 95.7393 77.9969 96.8932 79.29 96.8932Z" fill="white"/>
<path d="M88.1776 96.8932C89.4708 96.8932 90.5191 95.7393 90.5191 94.3159C90.5191 92.8925 89.4708 91.7386 88.1776 91.7386C86.8845 91.7386 85.8362 92.8925 85.8362 94.3159C85.8362 95.7393 86.8845 96.8932 88.1776 96.8932Z" fill="white"/>
<path d="M97.0652 96.8932C98.3584 96.8932 99.4067 95.7393 99.4067 94.3159C99.4067 92.8925 98.3584 91.7386 97.0652 91.7386C95.7721 91.7386 94.7238 92.8925 94.7238 94.3159C94.7238 95.7393 95.7721 96.8932 97.0652 96.8932Z" fill="white"/>
<path d="M220.354 253.659H196.849C195.472 253.657 194.152 253.054 193.178 251.983C192.205 250.911 191.657 249.458 191.656 247.943V222.07C191.657 220.555 192.205 219.102 193.178 218.03C194.152 216.959 195.472 216.356 196.849 216.354H220.354C221.731 216.356 223.051 216.959 224.024 218.03C224.998 219.102 225.545 220.555 225.547 222.07V247.943C225.545 249.458 224.998 250.911 224.024 251.983C223.051 253.054 221.731 253.657 220.354 253.659ZM196.849 217.558C195.762 217.559 194.72 218.035 193.951 218.881C193.182 219.727 192.75 220.874 192.749 222.07V247.943C192.75 249.139 193.182 250.286 193.951 251.132C194.72 251.978 195.762 252.454 196.849 252.456H220.354C221.441 252.454 222.483 251.978 223.251 251.132C224.02 250.286 224.452 249.139 224.454 247.943V222.07C224.452 220.874 224.02 219.727 223.251 218.881C222.483 218.035 221.441 217.559 220.354 217.558H196.849Z" fill="#CCCCCC"/>
<path d="M215.707 246.439H201.495C201.06 246.438 200.643 246.248 200.336 245.909C200.028 245.571 199.856 245.112 199.855 244.634V225.38C199.856 224.901 200.028 224.442 200.336 224.104C200.643 223.765 201.06 223.575 201.495 223.575H211.793C212.167 223.575 212.529 223.715 212.821 223.973L216.735 227.435C216.926 227.603 217.081 227.817 217.187 228.061C217.293 228.305 217.348 228.571 217.347 228.842V244.634C217.347 245.112 217.174 245.571 216.867 245.909C216.559 246.248 216.142 246.438 215.707 246.439ZM201.495 224.778C201.35 224.778 201.211 224.842 201.109 224.954C201.006 225.067 200.948 225.22 200.948 225.38V244.634C200.948 244.793 201.006 244.946 201.109 245.059C201.211 245.172 201.35 245.235 201.495 245.235H215.707C215.852 245.235 215.991 245.172 216.094 245.059C216.196 244.946 216.254 244.793 216.254 244.634V228.842C216.254 228.752 216.236 228.663 216.201 228.582C216.165 228.5 216.114 228.429 216.05 228.373L212.135 224.91C212.038 224.825 211.918 224.778 211.793 224.778H201.495Z" fill="#CCCCCC"/>
<path d="M212.974 231.998H204.228C204.083 231.998 203.944 231.935 203.842 231.822C203.739 231.709 203.681 231.556 203.681 231.396C203.681 231.237 203.739 231.084 203.842 230.971C203.944 230.858 204.083 230.795 204.228 230.795H212.974C213.119 230.795 213.258 230.858 213.361 230.971C213.463 231.084 213.521 231.237 213.521 231.396C213.521 231.556 213.463 231.709 213.361 231.822C213.258 231.935 213.119 231.998 212.974 231.998Z" fill="#CCCCCC"/>
<path d="M212.974 235.608H204.228C204.083 235.608 203.944 235.545 203.842 235.432C203.739 235.319 203.681 235.166 203.681 235.007C203.681 234.847 203.739 234.694 203.842 234.581C203.944 234.468 204.083 234.405 204.228 234.405H212.974C213.119 234.405 213.258 234.468 213.361 234.581C213.463 234.694 213.521 234.847 213.521 235.007C213.521 235.166 213.463 235.319 213.361 235.432C213.258 235.545 213.119 235.608 212.974 235.608Z" fill="#CCCCCC"/>
<path d="M212.974 239.218H204.228C204.083 239.218 203.944 239.155 203.842 239.042C203.739 238.929 203.681 238.776 203.681 238.617C203.681 238.457 203.739 238.304 203.842 238.191C203.944 238.078 204.083 238.015 204.228 238.015H212.974C213.119 238.015 213.258 238.078 213.361 238.191C213.463 238.304 213.521 238.457 213.521 238.617C213.521 238.776 213.463 238.929 213.361 239.042C213.258 239.155 213.119 239.218 212.974 239.218Z" fill="#CCCCCC"/>
<path d="M276.111 253.659H252.605C251.228 253.657 249.909 253.054 248.935 251.983C247.961 250.911 247.414 249.458 247.412 247.943V222.07C247.414 220.555 247.961 219.102 248.935 218.03C249.909 216.959 251.228 216.356 252.605 216.354H276.111C277.487 216.356 278.807 216.959 279.781 218.03C280.754 219.102 281.302 220.555 281.304 222.07V247.943C281.302 249.458 280.754 250.911 279.781 251.983C278.807 253.054 277.487 253.657 276.111 253.659ZM252.605 217.558C251.518 217.559 250.476 218.035 249.708 218.881C248.939 219.727 248.507 220.874 248.506 222.07V247.943C248.507 249.139 248.939 250.286 249.708 251.132C250.476 251.978 251.518 252.454 252.605 252.456H276.111C277.197 252.454 278.24 251.978 279.008 251.132C279.777 250.286 280.209 249.139 280.21 247.943V222.07C280.209 220.874 279.777 219.727 279.008 218.881C278.24 218.035 277.197 217.559 276.111 217.558H252.605Z" fill="#CCCCCC"/>
<path d="M272.011 241.625H256.705C256.27 241.625 255.853 241.434 255.546 241.096C255.238 240.758 255.066 240.299 255.065 239.82V230.193C255.066 229.715 255.238 229.256 255.546 228.917C255.853 228.579 256.27 228.389 256.705 228.388H272.011C272.446 228.389 272.862 228.579 273.17 228.917C273.477 229.256 273.65 229.715 273.651 230.193V239.82C273.65 240.299 273.477 240.758 273.17 241.096C272.862 241.434 272.446 241.625 272.011 241.625ZM256.705 229.591C256.56 229.592 256.421 229.655 256.319 229.768C256.216 229.881 256.159 230.034 256.158 230.193V239.82C256.159 239.98 256.216 240.133 256.319 240.245C256.421 240.358 256.56 240.422 256.705 240.422H272.011C272.156 240.422 272.295 240.358 272.397 240.245C272.5 240.133 272.557 239.98 272.557 239.82V230.193C272.557 230.034 272.5 229.881 272.397 229.768C272.295 229.655 272.156 229.592 272.011 229.591H256.705Z" fill="#CCCCCC"/>
<path d="M264.358 236.594C264.051 236.594 263.75 236.5 263.489 236.322L255.322 230.703C255.199 230.619 255.112 230.484 255.08 230.328C255.047 230.173 255.072 230.01 255.149 229.875C255.226 229.74 255.348 229.643 255.489 229.607C255.63 229.571 255.779 229.599 255.902 229.683L264.069 235.301C264.156 235.36 264.256 235.392 264.358 235.392C264.46 235.392 264.561 235.36 264.648 235.301L272.814 229.683C272.937 229.599 273.085 229.571 273.226 229.607C273.368 229.643 273.49 229.74 273.567 229.875C273.643 230.01 273.668 230.173 273.636 230.328C273.604 230.484 273.517 230.619 273.394 230.703L265.227 236.322C264.966 236.5 264.665 236.595 264.358 236.594Z" fill="#CCCCCC"/>
<path d="M164.597 253.659H141.092C139.715 253.657 138.395 253.054 137.422 251.983C136.448 250.911 135.9 249.458 135.899 247.943V222.07C135.9 220.555 136.448 219.102 137.422 218.03C138.395 216.959 139.715 216.356 141.092 216.354H164.597C165.974 216.356 167.294 216.959 168.267 218.03C169.241 219.102 169.789 220.555 169.79 222.07V247.943C169.789 249.458 169.241 250.911 168.267 251.983C167.294 253.054 165.974 253.657 164.597 253.659ZM141.092 217.558C140.005 217.559 138.963 218.035 138.194 218.881C137.426 219.727 136.993 220.874 136.992 222.07V247.943C136.993 249.139 137.426 250.286 138.194 251.132C138.963 251.978 140.005 252.454 141.092 252.456H164.597C165.684 252.454 166.726 251.978 167.495 251.132C168.263 250.286 168.696 249.139 168.697 247.943V222.07C168.696 220.874 168.263 219.727 167.495 218.881C166.726 218.035 165.684 217.559 164.597 217.558H141.092Z" fill="#CCCCCC"/>
<path d="M160.497 241.625H145.192C144.757 241.625 144.34 241.434 144.033 241.096C143.725 240.758 143.552 240.299 143.552 239.82V230.193C143.552 229.715 143.725 229.256 144.033 228.917C144.34 228.579 144.757 228.389 145.192 228.388H160.497C160.932 228.389 161.349 228.579 161.656 228.917C161.964 229.256 162.137 229.715 162.137 230.193V239.82C162.137 240.299 161.964 240.758 161.656 241.096C161.349 241.434 160.932 241.625 160.497 241.625ZM145.192 229.591C145.047 229.592 144.908 229.655 144.805 229.768C144.703 229.881 144.645 230.034 144.645 230.193V239.82C144.645 239.98 144.703 240.133 144.805 240.245C144.908 240.358 145.047 240.422 145.192 240.422H160.497C160.642 240.422 160.781 240.358 160.884 240.245C160.986 240.133 161.044 239.98 161.044 239.82V230.193C161.044 230.034 160.986 229.881 160.884 229.768C160.781 229.655 160.642 229.592 160.497 229.591H145.192Z" fill="#CCCCCC"/>
<path d="M158.071 241.625H147.071C146.879 241.625 146.69 241.57 146.524 241.464C146.358 241.358 146.22 241.207 146.124 241.024C146.028 240.841 145.978 240.633 145.978 240.422C145.978 240.211 146.028 240.003 146.124 239.82L149.438 233.502C149.534 233.319 149.672 233.168 149.838 233.062C150.004 232.956 150.193 232.901 150.385 232.901C150.576 232.901 150.765 232.956 150.931 233.062C151.097 233.168 151.235 233.319 151.331 233.502L153.471 237.583L154.711 235.219C154.807 235.036 154.945 234.884 155.111 234.778C155.278 234.673 155.466 234.617 155.658 234.617C155.85 234.617 156.039 234.673 156.205 234.778C156.371 234.884 156.509 235.036 156.605 235.219L159.018 239.82C159.114 240.003 159.165 240.211 159.165 240.422C159.165 240.633 159.114 240.841 159.018 241.024C158.922 241.207 158.784 241.358 158.618 241.464C158.452 241.57 158.263 241.625 158.071 241.625H158.071ZM158.071 240.422L155.658 235.82L153.945 239.087C153.897 239.178 153.828 239.254 153.745 239.307C153.662 239.36 153.567 239.388 153.471 239.388C153.376 239.388 153.281 239.36 153.198 239.307C153.115 239.254 153.046 239.178 152.998 239.087L150.385 234.104L147.071 240.422H158.071Z" fill="#CCCCCC"/>
<path d="M158.857 233.201C159.461 233.201 159.951 232.663 159.951 231.998C159.951 231.333 159.461 230.795 158.857 230.795C158.254 230.795 157.764 231.333 157.764 231.998C157.764 232.663 158.254 233.201 158.857 233.201Z" fill="#CCCCCC"/>
<path d="M420.266 389.984L413.564 389.983L410.376 361.531L420.267 361.531L420.266 389.984Z" fill="#FFB8B8"/>
<path d="M421.975 397.134L400.366 397.133V396.832C400.366 395.617 400.584 394.413 401.006 393.29C401.429 392.166 402.049 391.146 402.83 390.286C403.611 389.427 404.538 388.745 405.558 388.279C406.579 387.814 407.673 387.575 408.777 387.575H408.778L421.975 387.575L421.975 397.134Z" fill="#2F2E41"/>
<path d="M447.598 389.984L440.896 389.983L437.708 361.531L447.599 361.531L447.598 389.984Z" fill="#FFB8B8"/>
<path d="M449.307 397.134L427.698 397.133V396.832C427.698 395.617 427.915 394.413 428.338 393.29C428.761 392.166 429.38 391.146 430.161 390.286C430.942 389.427 431.87 388.745 432.89 388.279C433.91 387.814 435.004 387.575 436.109 387.575H436.109L449.307 387.575L449.307 397.134Z" fill="#2F2E41"/>
<path d="M445.589 377.649L439.382 375.571C438.919 375.417 438.508 375.116 438.2 374.705C437.893 374.295 437.702 373.794 437.651 373.265L431.865 312.9C431.86 312.827 431.831 312.759 431.782 312.709C431.734 312.659 431.67 312.631 431.603 312.631C431.537 312.624 431.47 312.646 431.418 312.692C431.366 312.737 431.332 312.804 431.324 312.877L421.632 371.36C421.573 371.715 421.45 372.054 421.271 372.356C421.092 372.658 420.859 372.917 420.588 373.119C420.316 373.321 420.01 373.461 419.689 373.531C419.368 373.601 419.037 373.599 418.716 373.526L410.783 371.728C410.201 371.594 409.683 371.233 409.323 370.712C408.964 370.192 408.787 369.545 408.825 368.893L414.721 273.036L454.701 268.288L448.76 375.224C448.721 375.911 448.446 376.557 447.991 377.029C447.536 377.502 446.934 377.766 446.308 377.768C446.065 377.767 445.822 377.728 445.589 377.649Z" fill="#023047"/>
<path d="M445.551 189.56C452.966 189.56 458.977 182.944 458.977 174.782C458.977 166.621 452.966 160.004 445.551 160.004C438.136 160.004 432.125 166.621 432.125 174.782C432.125 182.944 438.136 189.56 445.551 189.56Z" fill="#FFB8B8"/>
<path d="M414.659 273.599L423.328 213.52C423.789 210.326 424.863 207.276 426.478 204.574C428.093 201.872 430.212 199.58 432.695 197.849C435.177 196.119 437.966 194.99 440.876 194.538C443.785 194.087 446.749 194.322 449.569 195.229C454.501 196.799 458.723 200.336 461.412 205.15C464.101 209.963 465.063 215.707 464.11 221.259L455.041 274.913L414.659 273.599Z" fill="#8ECAE6"/>
<path d="M449.257 284.349C449.928 283.862 450.493 283.218 450.913 282.464C451.334 281.71 451.599 280.864 451.69 279.985C451.781 279.107 451.696 278.216 451.44 277.378C451.185 276.539 450.766 275.772 450.212 275.131L459.175 256.027L449.081 257.212L442.118 275.172C441.201 276.268 440.681 277.695 440.656 279.184C440.632 280.673 441.104 282.12 441.984 283.251C442.865 284.382 444.091 285.119 445.431 285.321C446.772 285.523 448.133 285.178 449.257 284.349V284.349Z" fill="#FFB8B8"/>
<path d="M451.176 271.761C450.681 271.684 450.218 271.443 449.85 271.069L446.421 267.581C446.05 267.202 445.794 266.708 445.688 266.164C445.581 265.62 445.628 265.053 445.824 264.54L452.677 246.659L451.705 211.328C451.845 210.192 452.187 209.098 452.711 208.108C453.235 207.117 453.931 206.251 454.76 205.557C455.589 204.863 456.534 204.355 457.541 204.064C458.548 203.772 459.597 203.702 460.629 203.856C461.66 204.011 462.654 204.389 463.553 204.967C464.453 205.544 465.24 206.312 465.869 207.225C466.499 208.137 466.959 209.178 467.223 210.287C467.487 211.395 467.55 212.55 467.408 213.686L469.071 235.895C469.576 242.636 467.84 249.349 464.185 254.786L453.497 270.69C453.292 270.996 453.03 271.251 452.729 271.438C452.428 271.625 452.095 271.74 451.751 271.776C451.559 271.796 451.367 271.791 451.176 271.761Z" fill="#8ECAE6"/>
<path d="M368.235 166.731C368.381 167.601 368.699 168.424 369.166 169.144C369.633 169.864 370.237 170.463 370.937 170.898C371.637 171.333 372.415 171.593 373.216 171.662C374.017 171.73 374.822 171.604 375.574 171.293L388.063 187.826L391.006 177.133L378.696 163.072C378.137 161.716 377.146 160.632 375.91 160.027C374.673 159.421 373.279 159.336 371.989 159.787C370.7 160.238 369.605 161.194 368.913 162.474C368.222 163.754 367.98 165.268 368.235 166.731Z" fill="#FFB8B8"/>
<path d="M378.018 173.584C378.275 173.111 378.658 172.737 379.114 172.509L383.369 170.393C383.83 170.166 384.344 170.099 384.84 170.203C385.337 170.307 385.793 170.576 386.146 170.974L398.433 184.893L428.37 197.682C429.266 198.267 430.049 199.04 430.673 199.957C431.297 200.875 431.751 201.919 432.009 203.029C432.266 204.14 432.322 205.296 432.174 206.43C432.025 207.565 431.675 208.656 431.143 209.641C430.611 210.627 429.908 211.487 429.074 212.173C428.24 212.86 427.291 213.358 426.281 213.64C425.272 213.922 424.222 213.983 423.191 213.818C422.161 213.653 421.17 213.267 420.275 212.68L401.046 205.705C395.21 203.59 390.271 199.212 387.147 193.388L378.009 176.354C377.833 176.026 377.722 175.662 377.683 175.284C377.644 174.906 377.677 174.523 377.782 174.16C377.839 173.959 377.919 173.765 378.018 173.584Z" fill="#8ECAE6"/>
<path opacity="0.1" d="M456.441 226.025L455.894 245.279L445.824 264.54L454.232 243.076L456.441 226.025Z" fill="black"/>
<path d="M444.013 177.56C443.169 177.68 442.315 177.46 441.608 176.94C440.901 176.419 440.39 175.634 440.169 174.73C439.957 173.69 439.491 172.733 438.821 171.962C438.152 171.191 437.304 170.635 436.37 170.354C433.907 169.734 430.897 171.011 429.092 168.957C428.706 168.488 428.426 167.924 428.277 167.313C428.127 166.702 428.111 166.06 428.231 165.441C428.564 163.445 429.861 161.938 431.272 160.732C434.243 158.206 437.838 156.727 441.585 156.489C443.525 156.428 445.466 156.534 447.391 156.807C449.406 156.947 451.399 157.348 453.329 158.002C455.528 158.915 457.482 160.424 459.011 162.388C460.54 164.353 461.594 166.71 462.076 169.242C462.517 171.781 462.45 174.396 461.878 176.904C461.306 179.411 460.244 181.751 458.765 183.76C456.995 186.186 454.713 188.099 452.118 189.331C451.5 189.653 450.791 189.692 450.147 189.441C448.53 188.734 448.794 186.53 449.531 185.06C450.32 183.486 451.534 181.963 450.899 180.048C450.582 179.16 449.971 178.437 449.19 178.023C447.583 177.121 445.785 177.334 444.058 177.554L444.013 177.56Z" fill="#2F2E41"/>
<path d="M363.749 185.905H197.572C195.18 185.902 192.888 184.855 191.197 182.994C189.506 181.133 188.555 178.609 188.552 175.977V136.867C188.555 134.235 189.506 131.712 191.197 129.851C192.888 127.99 195.18 126.943 197.572 126.94H363.749C366.14 126.943 368.432 127.99 370.123 129.851C371.814 131.712 372.765 134.235 372.768 136.867V175.977C372.765 178.609 371.814 181.133 370.123 182.994C368.432 184.855 366.14 185.902 363.749 185.905Z" fill="white"/>
<path d="M363.748 186.206H197.572C195.108 186.203 192.746 185.124 191.004 183.207C189.262 181.289 188.282 178.689 188.279 175.977V136.868C188.282 134.156 189.262 131.556 191.004 129.638C192.746 127.721 195.108 126.642 197.572 126.639H363.748C366.212 126.642 368.574 127.721 370.316 129.638C372.058 131.556 373.038 134.156 373.041 136.868V175.977C373.038 178.689 372.058 181.289 370.316 183.207C368.574 185.124 366.212 186.203 363.748 186.206ZM197.572 127.842C195.398 127.845 193.314 128.797 191.776 130.489C190.239 132.181 189.375 134.475 189.372 136.868V175.977C189.375 178.37 190.239 180.664 191.776 182.356C193.314 184.048 195.398 185 197.572 185.003H363.748C365.922 185 368.006 184.048 369.544 182.356C371.081 180.664 371.945 178.37 371.948 175.977V136.868C371.945 134.475 371.081 132.181 369.544 130.489C368.006 128.797 365.922 127.845 363.748 127.842H197.572Z" fill="#3F3D56"/>
<path d="M343.523 176.278H217.797C215.406 176.275 213.113 175.228 211.422 173.367C209.731 171.506 208.78 168.982 208.778 166.35V145.893C208.78 143.261 209.731 140.737 211.422 138.876C213.113 137.015 215.406 135.968 217.797 135.965H343.523C345.914 135.968 348.207 137.015 349.898 138.876C351.589 140.737 352.54 143.261 352.542 145.893V166.35C352.54 168.982 351.589 171.506 349.898 173.367C348.207 175.228 345.914 176.275 343.523 176.278Z" fill="#F2F2F2"/>
<path d="M244.853 165.252C250.81 165.252 255.639 159.936 255.639 153.379C255.639 146.822 250.81 141.506 244.853 141.506C238.896 141.506 234.066 146.822 234.066 153.379C234.066 159.936 238.896 165.252 244.853 165.252Z" fill="#FB8500"/>
<path d="M335.71 175.08L320.485 161.025L305.523 147.212C305.128 146.848 304.629 146.648 304.113 146.649C303.598 146.651 303.099 146.852 302.706 147.218L287.792 161.094L284.149 164.484L278.656 159.413L261.964 144.003C261.569 143.639 261.07 143.439 260.554 143.44C260.039 143.442 259.541 143.643 259.147 144.009L242.509 159.49L225.608 175.214C225.523 175.293 225.462 175.4 225.433 175.519C225.404 175.639 225.41 175.765 225.448 175.881C225.487 175.997 225.557 176.096 225.649 176.167C225.741 176.238 225.85 176.275 225.962 176.275L260.612 176.202L271.579 176.178L271.472 176.278L304.165 176.209L335.36 176.143C335.472 176.142 335.581 176.104 335.673 176.033C335.765 175.962 335.834 175.862 335.873 175.746C335.911 175.63 335.916 175.504 335.887 175.385C335.858 175.266 335.796 175.159 335.71 175.08Z" fill="#3F3D56"/>
<path d="M478.453 398H373.5C373.355 398 373.216 397.937 373.113 397.824C373.011 397.711 372.953 397.558 372.953 397.398C372.953 397.239 373.011 397.086 373.113 396.973C373.216 396.86 373.355 396.797 373.5 396.797H478.453C478.598 396.797 478.737 396.86 478.84 396.973C478.942 397.086 479 397.239 479 397.398C479 397.558 478.942 397.711 478.84 397.824C478.737 397.937 478.598 398 478.453 398Z" fill="#CCCCCC"/>
<path d="M330.198 79.37C329.761 78.5891 329.184 77.9143 328.503 77.3867C327.822 76.8591 327.05 76.4898 326.235 76.3014C325.936 76.2323 325.632 76.19 325.327 76.175L283.679 35.1881C282.861 34.2625 281.77 33.6886 280.602 33.5695C280.371 33.5404 280.139 33.5323 279.907 33.5455C278.946 33.5935 278.019 33.9487 277.239 34.5677C276.458 35.1866 275.858 36.0424 275.513 37.0305C275.167 38.0186 275.091 39.0961 275.293 40.1313C275.494 41.1666 275.966 42.1146 276.649 42.8596L292.595 58.1605L318.778 83.281C318.8 83.7541 318.864 84.2237 318.97 84.6829C319.283 86.0132 319.957 87.2072 320.901 88.1066C321.845 89.006 323.015 89.5683 324.256 89.719C325.388 89.8645 326.534 89.656 327.563 89.1173C328.379 88.6973 329.102 88.0876 329.684 87.3303C329.744 87.2521 329.799 87.1799 329.853 87.0957C330.618 85.9993 331.06 84.6724 331.122 83.292C331.183 81.9117 330.861 80.5435 330.198 79.37H330.198Z" fill="#FFB8B8"/>
<path d="M258.96 118.871L258.572 101.506L258.244 87.0957L258.02 77.0114L257.577 57.3543C257.49 56.3018 257.126 55.3002 256.53 54.4717C255.933 53.6432 255.131 53.0236 254.22 52.6886C253.31 52.3537 252.33 52.3178 251.401 52.5853C250.472 52.8529 249.634 53.4124 248.99 54.1954C248.838 54.3743 248.701 54.5676 248.58 54.773C247.907 55.8339 247.604 57.1264 247.727 58.4132L248.7 87.0957L249.187 101.506L249.81 119.888C249.63 120.158 249.467 120.441 249.323 120.736C248.935 121.547 248.7 122.437 248.633 123.352C248.566 124.266 248.669 125.186 248.935 126.055C249.213 126.967 249.663 127.803 250.256 128.509C250.848 129.216 251.57 129.776 252.374 130.153C253.177 130.529 254.044 130.715 254.918 130.696C255.791 130.677 256.651 130.455 257.441 130.044C258.358 129.567 259.154 128.848 259.759 127.952C260.364 127.055 260.759 126.008 260.909 124.904C261.06 123.799 260.96 122.671 260.62 121.619C260.281 120.567 259.71 119.623 258.96 118.871H258.96Z" fill="#FFB8B8"/>
<path d="M296.46 69.6828L292.595 58.1605L286.341 39.4962C285.89 38.1382 285.167 36.9094 284.225 35.9011C283.284 34.8929 282.148 34.1309 280.902 33.6718C280.804 33.6357 280.7 33.5996 280.602 33.5695C279.395 33.1664 278.123 33.0555 276.874 33.2445C275.625 33.4336 274.427 33.918 273.364 34.6646L252.302 49.3698C250.373 50.7135 248.995 52.8298 248.457 55.2718C247.919 57.7137 248.265 60.2901 249.422 62.4565C252.055 67.4697 254.926 72.3279 258.02 77.0114C260.475 80.6877 265.044 81.0788 265.837 87.0956H281.367L297.088 71.5601L296.46 69.6828Z" fill="#219EBC"/>
<path d="M55.3001 210.503C62.2955 210.503 67.9665 204.261 67.9665 196.561C67.9665 188.861 62.2955 182.619 55.3001 182.619C48.3046 182.619 42.6336 188.861 42.6336 196.561C42.6336 204.261 48.3046 210.503 55.3001 210.503Z" fill="#A0616A"/>
<path d="M86.3963 186.964C86.5211 187.073 86.6421 187.189 86.7592 187.311C87.3411 187.915 87.8006 188.647 88.1076 189.459C88.4146 190.272 88.5621 191.146 88.5406 192.026C88.5191 192.905 88.329 193.77 87.9827 194.563C87.6364 195.356 87.1418 196.06 86.5312 196.628C86.3889 196.759 86.2404 196.882 86.0864 196.997L86.9436 228.853C86.968 229.896 86.6863 230.92 86.1403 231.772C85.5943 232.625 84.813 233.261 83.9125 233.587L83.8603 233.599L60.3612 236.353C59.7223 236.428 59.0763 236.363 58.4605 236.161C57.8447 235.96 57.2712 235.626 56.7732 235.179C56.2753 234.732 55.8627 234.181 55.5592 233.558C55.2558 232.935 55.0676 232.251 55.0054 231.548C54.9432 230.844 55.0083 230.133 55.197 229.457C55.3857 228.781 55.6941 228.153 56.1045 227.609C56.515 227.065 57.0193 226.616 57.5883 226.287C58.1573 225.959 58.7798 225.758 59.4198 225.696L76.171 224.072L79.068 196.484C78.8785 196.299 78.701 196.1 78.5369 195.888C77.6286 194.705 77.1522 193.193 77.2002 191.644C77.2483 190.096 77.8173 188.623 78.7968 187.511C79.7764 186.398 81.0965 185.726 82.5008 185.625C83.9052 185.524 85.2935 186.001 86.3963 186.964H86.3963Z" fill="#A0616A"/>
<path d="M76.1614 390.6H82.4843L85.4919 363.757H76.1603L76.1614 390.6Z" fill="#A0616A"/>
<path d="M74.549 388.328L87.0002 388.327H87.0007C88.0427 388.327 89.0746 388.553 90.0373 388.992C91 389.431 91.8748 390.074 92.6116 390.885C93.3484 391.696 93.9329 392.659 94.3317 393.719C94.7305 394.779 94.9357 395.914 94.9357 397.061V397.345L74.5493 397.346L74.549 388.328Z" fill="#2F2E41"/>
<path d="M13.3193 380.978L18.7518 384.538L33.8132 363.168L25.7951 357.913L13.3193 380.978Z" fill="#A0616A"/>
<path d="M12.9896 378.118L23.6882 385.129L23.6886 385.129C24.5839 385.716 25.3655 386.491 25.9887 387.411C26.6119 388.33 27.0644 389.375 27.3206 390.487C27.5767 391.599 27.6313 392.755 27.4814 393.89C27.3315 395.025 26.9799 396.117 26.4468 397.102L26.3149 397.346L8.79828 385.866L12.9896 378.118Z" fill="#2F2E41"/>
<path d="M83.9761 381.119H76.8963C76.323 381.12 75.7697 380.887 75.3435 380.465C74.9172 380.043 74.6483 379.462 74.5886 378.835L67.4511 304.985C67.4331 304.799 67.3601 304.625 67.2432 304.489C67.1263 304.354 66.9721 304.264 66.8044 304.234C66.6367 304.205 66.4648 304.237 66.3153 304.325C66.1657 304.414 66.0468 304.554 65.9768 304.724L53.1006 336.108L30.304 377.024C30.0089 377.549 29.5521 377.939 29.0172 378.123C28.4822 378.307 27.9049 378.272 27.391 378.026L18.284 373.616C17.9828 373.47 17.7133 373.255 17.4933 372.986C17.2733 372.717 17.1078 372.399 17.0078 372.054C16.9078 371.709 16.8756 371.345 16.9133 370.985C16.9509 370.625 17.0576 370.278 17.2263 369.967L38.1827 331.344L44.6098 298.801C42.5884 284.689 51.2542 263.707 51.3421 263.496L51.385 263.394L75.2552 253.125L75.3749 253.286C84.7886 287.289 90.5248 323.883 86.2894 378.779C86.2371 379.415 85.9712 380.008 85.5435 380.441C85.1158 380.873 84.557 381.115 83.9761 381.119Z" fill="#023047"/>
<path d="M50.4233 266.833L50.3122 266.575C50.259 266.452 44.9513 254.13 40.8598 240.961C40.0734 238.414 39.7762 235.715 39.9868 233.035C40.1974 230.356 40.9114 227.753 42.0834 225.393C43.2707 223.008 44.895 220.921 46.8534 219.263C48.8118 217.606 51.0616 216.414 53.4603 215.763C57.6246 214.665 62.0088 215.249 65.8143 217.411C69.6198 219.572 72.5932 223.166 74.1929 227.538C77.4384 236.471 76.4041 246.007 75.4307 253.505L75.4113 253.656L75.2871 253.721L50.4233 266.833Z" fill="#FB8500"/>
<path d="M70.6577 188.685H50.5449V179.035C54.9595 177.105 59.2793 175.463 61.8906 179.035C64.2158 179.035 66.4457 180.052 68.0899 181.861C69.734 183.671 70.6577 186.126 70.6577 188.685V188.685Z" fill="#2F2E41"/>
<path d="M49.4314 177.332C37.4076 177.332 34.0421 193.921 34.0421 203.28C34.0421 208.499 36.1866 210.366 39.5563 210.998L40.7464 204.012L43.5337 211.299C44.4803 211.304 45.4747 211.284 46.5056 211.262L47.4507 209.121L49.5581 211.224C57.9986 211.238 64.8204 212.592 64.8204 203.28C64.8204 193.921 61.8689 177.332 49.4314 177.332Z" fill="#2F2E41"/>
<path d="M105.5 398H0.546634C0.401658 398 0.262619 397.937 0.160105 397.824C0.0575912 397.711 0 397.558 0 397.398C0 397.239 0.0575912 397.086 0.160105 396.973C0.262619 396.86 0.401658 396.797 0.546634 396.797H105.5C105.645 396.797 105.784 396.86 105.887 396.973C105.989 397.086 106.047 397.239 106.047 397.398C106.047 397.558 105.989 397.711 105.887 397.824C105.784 397.937 105.645 398 105.5 398Z" fill="#CCCCCC"/>
<path d="M107.474 200.045H83.9686C82.5918 200.043 81.2719 199.44 80.2983 198.369C79.3248 197.297 78.7771 195.844 78.7756 194.329V168.456C78.7771 166.941 79.3248 165.488 80.2983 164.416C81.2719 163.345 82.5918 162.742 83.9686 162.74H107.474C108.851 162.742 110.171 163.345 111.144 164.416C112.118 165.488 112.665 166.941 112.667 168.456V194.329C112.665 195.844 112.118 197.297 111.144 198.369C110.171 199.44 108.851 200.043 107.474 200.045Z" fill="white"/>
<path d="M107.474 200.045H83.9686C82.5918 200.043 81.2719 199.44 80.2983 198.369C79.3248 197.297 78.7771 195.844 78.7756 194.329V168.456C78.7771 166.941 79.3248 165.488 80.2983 164.416C81.2719 163.345 82.5918 162.742 83.9686 162.74H107.474C108.851 162.742 110.171 163.345 111.144 164.416C112.118 165.488 112.665 166.941 112.667 168.456V194.329C112.665 195.844 112.118 197.297 111.144 198.369C110.171 199.44 108.851 200.043 107.474 200.045ZM83.9686 163.944C82.8816 163.945 81.8396 164.421 81.071 165.267C80.3024 166.113 79.8701 167.26 79.8688 168.456V194.329C79.8701 195.525 80.3024 196.672 81.071 197.518C81.8396 198.364 82.8816 198.84 83.9686 198.841H107.474C108.561 198.84 109.603 198.364 110.372 197.518C111.14 196.672 111.572 195.525 111.574 194.329V168.456C111.572 167.26 111.14 166.113 110.372 165.267C109.603 164.421 108.561 163.945 107.474 163.944H83.9686Z" fill="#3F3D56"/>
<path d="M103.374 189.515H88.0684C87.6336 189.515 87.2167 189.324 86.9093 188.986C86.6019 188.648 86.4289 188.189 86.4285 187.71V175.075C86.4289 174.596 86.6019 174.137 86.9093 173.799C87.2167 173.461 87.6336 173.27 88.0684 173.27H92.3771C92.6574 173.269 92.9331 173.347 93.1778 173.497C93.4225 173.648 93.6278 173.865 93.7738 174.128L94.9755 176.278H103.374C103.809 176.279 104.226 176.469 104.533 176.807C104.841 177.146 105.014 177.605 105.014 178.083V187.71C105.014 188.189 104.841 188.648 104.533 188.986C104.226 189.324 103.809 189.515 103.374 189.515Z" fill="#8ECAE6"/>
<path d="M102.876 195.899C102.953 196.053 103.023 196.211 103.088 196.374C103.412 197.179 103.577 198.05 103.574 198.929C103.57 199.809 103.398 200.678 103.068 201.48C102.738 202.281 102.258 202.997 101.659 203.58C101.061 204.163 100.357 204.6 99.5937 204.863C99.4162 204.923 99.2359 204.974 99.0536 205.013L88.6132 234.739C88.268 235.711 87.6475 236.534 86.8436 237.087C86.0398 237.64 85.0955 237.892 84.1509 237.807L84.0984 237.796L61.4696 230.298C60.8543 230.094 60.2819 229.758 59.7853 229.309C59.2887 228.861 58.8778 228.308 58.5763 227.684C58.2749 227.059 58.0888 226.375 58.0289 225.671C57.969 224.967 58.0364 224.256 58.2272 223.581C58.4181 222.906 58.7286 222.279 59.1408 221.736C59.553 221.194 60.0588 220.747 60.629 220.42C61.1991 220.094 61.8223 219.896 62.4625 219.836C63.1028 219.777 63.7474 219.857 64.3591 220.074L80.3702 225.732L92.7659 201.543C92.6564 201.292 92.563 201.033 92.4864 200.767C92.0665 199.289 92.1608 197.691 92.7508 196.285C93.3409 194.878 94.3847 193.764 95.6796 193.157C96.9744 192.55 98.4279 192.495 99.7579 193.001C101.088 193.508 102.199 194.541 102.876 195.899H102.876Z" fill="#A0616A"/>
</g>
<defs>
<clipPath id="clip0_3_227">
<rect width="479" height="398" fill="white"/>
</clipPath>
</defs>
</svg>
