<svg width="34" height="34" viewBox="0 0 34 34" fill="none" xmlns="http://www.w3.org/2000/svg">
<path d="M17 22.3125C19.934 22.3125 22.3125 19.934 22.3125 17C22.3125 14.066 19.934 11.6875 17 11.6875C14.066 11.6875 11.6875 14.066 11.6875 17C11.6875 19.934 14.066 22.3125 17 22.3125Z" stroke="#023047" stroke-width="2" stroke-linecap="round" stroke-linejoin="round"/>
<path d="M22.8438 4.78125H11.1562C7.63543 4.78125 4.78125 7.63543 4.78125 11.1562V22.8438C4.78125 26.3646 7.63543 29.2188 11.1562 29.2188H22.8438C26.3646 29.2188 29.2188 26.3646 29.2188 22.8438V11.1562C29.2188 7.63543 26.3646 4.78125 22.8438 4.78125Z" stroke="#023047" stroke-width="2" stroke-linecap="round" stroke-linejoin="round"/>
<path d="M23.9062 11.1562C24.4931 11.1562 24.9688 10.6806 24.9688 10.0938C24.9688 9.50695 24.4931 9.03125 23.9062 9.03125C23.3194 9.03125 22.8438 9.50695 22.8438 10.0938C22.8438 10.6806 23.3194 11.1562 23.9062 11.1562Z" fill="#023047"/>
</svg>
