<svg width="52" height="52" viewBox="0 0 52 52" fill="none" xmlns="http://www.w3.org/2000/svg">
<rect width="52" height="52" rx="4" fill="#E7ECEF"/>
<path d="M25.9444 41.4C23.8377 41.4 21.931 40.9733 20.2244 40.12C18.5444 39.2667 17.171 38.04 16.1044 36.44L19.4244 33.24C20.3044 34.28 21.371 35.1333 22.6244 35.8C23.8777 36.4667 25.051 36.8 26.1444 36.8C27.371 36.8 28.3577 36.52 29.1044 35.96C29.851 35.4 30.2244 34.6667 30.2244 33.76C30.2244 33.0933 30.1044 32.5467 29.8644 32.12C29.6244 31.6933 29.171 31.2667 28.5044 30.84C27.8377 30.3867 26.7444 29.7867 25.2244 29.04C23.2244 28.0533 21.651 27.1333 20.5044 26.28C19.3577 25.4267 18.5044 24.5067 17.9444 23.52C17.411 22.5067 17.1444 21.3333 17.1444 20C17.1444 18.5333 17.531 17.24 18.3044 16.12C19.0777 15 20.171 14.1333 21.5844 13.52C22.9977 12.9067 24.6244 12.6 26.4644 12.6C28.491 12.6 30.2777 12.9867 31.8244 13.76C33.3977 14.5333 34.5444 15.6 35.2644 16.96L31.6244 19.68C30.291 18.0267 28.651 17.2 26.7044 17.2C25.4777 17.2 24.531 17.44 23.8644 17.92C23.1977 18.4 22.8644 19.08 22.8644 19.96C22.8644 20.4933 23.0244 20.9733 23.3444 21.4C23.691 21.8267 24.3044 22.2933 25.1844 22.8C26.0644 23.3067 27.3844 23.9733 29.1444 24.8C30.851 25.6 32.1844 26.4 33.1444 27.2C34.131 28 34.8377 28.8933 35.2644 29.88C35.691 30.8667 35.9044 32.04 35.9044 33.4C35.9044 35 35.491 36.4133 34.6644 37.64C33.8644 38.84 32.7044 39.7733 31.1844 40.44C29.691 41.08 27.9444 41.4 25.9444 41.4Z" fill="#023047"/>
</svg>
