<svg width="270" height="270" viewBox="0 0 270 270" fill="none" xmlns="http://www.w3.org/2000/svg">
<mask id="mask0_18_188" style="mask-type:alpha" maskUnits="userSpaceOnUse" x="0" y="0" width="270" height="270">
<circle cx="134.725" cy="134.725" r="134.725" fill="white"/>
</mask>
<g mask="url(#mask0_18_188)">
<rect x="-26" y="-22.5504" width="337" height="326" fill="#F2F2F2"/>
<path d="M245.859 60.3318H14.0986V208.483H245.859V60.3318Z" fill="#E6E6E6"/>
<path d="M239.232 78.9136H20.7261V199.718H239.232V78.9136Z" fill="white"/>
<path d="M245.76 60.2007H14V70.0283H245.76V60.2007Z" fill="#023047"/>
<path d="M21.3168 67.0466C22.3246 67.0466 23.1417 66.2311 23.1417 65.2251C23.1417 64.2191 22.3246 63.4036 21.3168 63.4036C20.3089 63.4036 19.4919 64.2191 19.4919 65.2251C19.4919 66.2311 20.3089 67.0466 21.3168 67.0466Z" fill="white"/>
<path d="M28.2436 67.0466C29.2515 67.0466 30.0685 66.2311 30.0685 65.2251C30.0685 64.2191 29.2515 63.4036 28.2436 63.4036C27.2357 63.4036 26.4187 64.2191 26.4187 65.2251C26.4187 66.2311 27.2357 67.0466 28.2436 67.0466Z" fill="white"/>
<path d="M35.1704 67.0466C36.1783 67.0466 36.9953 66.2311 36.9953 65.2251C36.9953 64.2191 36.1783 63.4036 35.1704 63.4036C34.1626 63.4036 33.3455 64.2191 33.3455 65.2251C33.3455 66.2311 34.1626 67.0466 35.1704 67.0466Z" fill="white"/>
<path d="M96.7262 91.448H40.5804V187.184H96.7262V91.448Z" fill="#E6E6E6"/>
<path d="M153.206 91.448H106.418V117.801H153.206V91.448Z" fill="#023047"/>
<path d="M153.206 125.139H106.418V153.493H153.206V125.139Z" fill="#E6E6E6"/>
<path d="M153.206 160.832H106.418V187.184H153.206V160.832Z" fill="#E6E6E6"/>
<path d="M219.378 91.448H163.232V133.169H219.378V91.448Z" fill="#E6E6E6"/>
<path d="M219.378 145.463H163.232V187.184H219.378V145.463Z" fill="#E6E6E6"/>
<path d="M197.749 136.166V127.185C197.749 123.993 199.019 120.931 201.281 118.674C203.542 116.417 206.609 115.149 209.807 115.149C213.005 115.149 216.072 116.417 218.334 118.674C220.595 120.931 221.866 123.993 221.866 127.185V136.166C221.865 136.595 221.694 137.006 221.391 137.309C221.087 137.612 220.675 137.783 220.246 137.783H199.369C198.939 137.783 198.527 137.612 198.224 137.309C197.92 137.006 197.749 136.595 197.749 136.166Z" fill="#2F2E41"/>
<path d="M227.638 253.056L223.384 254.231L216.82 238.416L223.098 236.682L227.638 253.056Z" fill="#FFB8B8"/>
<path d="M220.01 253.858L228.213 251.592L229.642 256.746L216.275 260.439C216.087 259.762 216.035 259.055 216.121 258.358C216.207 257.66 216.43 256.987 216.777 256.376C217.124 255.765 217.588 255.228 218.143 254.796C218.697 254.364 219.332 254.045 220.01 253.858Z" fill="#2F2E41"/>
<path d="M183.296 256.322H178.883L176.784 239.332H183.297L183.296 256.322Z" fill="#FFB8B8"/>
<path d="M175.731 255.063H184.242V260.412H170.373C170.373 259.709 170.511 259.014 170.78 258.365C171.05 257.716 171.444 257.126 171.942 256.63C172.44 256.133 173.03 255.739 173.68 255.47C174.331 255.202 175.027 255.063 175.731 255.063Z" fill="#2F2E41"/>
<path d="M177.975 161.373C178.29 161.797 178.694 162.147 179.16 162.399C179.625 162.65 180.14 162.797 180.668 162.828C181.196 162.86 181.725 162.775 182.217 162.581C182.709 162.386 183.152 162.086 183.515 161.702L195.246 166.969L194.179 160.382L183.203 156.391C182.516 155.825 181.645 155.53 180.755 155.561C179.864 155.593 179.017 155.95 178.372 156.564C177.728 157.178 177.331 158.007 177.258 158.893C177.185 159.779 177.44 160.661 177.975 161.373H177.975Z" fill="#FFB8B8"/>
<path d="M202.349 200.979C198.663 200.979 194.848 200.431 191.641 198.801C189.938 197.953 188.43 196.763 187.209 195.307C185.988 193.85 185.082 192.157 184.547 190.335C182.876 185.054 184.982 179.865 187.02 174.848C188.282 171.739 189.475 168.802 189.784 165.908L189.893 164.88C190.374 160.264 190.791 156.278 193.095 154.783C194.29 154.008 195.895 153.963 198.005 154.647L217.819 161.072L217.09 198.613L216.97 198.653C216.866 198.688 209.881 200.979 202.349 200.979Z" fill="#2F2E41"/>
<path d="M197.659 142.96C197.659 142.96 207.377 140.086 214.937 141.164C214.937 141.164 210.617 164.876 212.057 172.78C213.497 180.684 187.04 175.834 192.439 168.289L194.239 159.307C194.239 159.307 190.64 155.714 193.879 151.403L197.659 142.96Z" fill="#023047"/>
<path d="M192.878 200.267L180.901 198.026L185.082 165.904C185.364 165.007 191.842 144.655 194.784 143.554C196.92 142.803 199.105 142.197 201.323 141.74L201.749 141.655L199.347 145.251L189.785 168.121L192.878 200.267Z" fill="#2F2E41"/>
<path d="M186.637 252.385L171.161 249.811L179.846 214.413L192.77 166.005L192.897 166.865C192.907 166.929 194.115 173.253 212.029 170.447L212.187 170.422L212.23 170.575L233.882 246.935L216.248 249.869L200.164 194.157L186.637 252.385Z" fill="#2F2E41"/>
<path d="M208.088 206.278L208.097 206.007C208.108 205.705 209.173 175.693 208.817 163.623C208.461 151.512 212.389 141.024 212.429 140.92L212.461 140.836L212.547 140.811C217.63 139.362 222.039 143.687 222.083 143.731L222.145 143.793L220.697 155.712L226.894 199.056L208.088 206.278Z" fill="#2F2E41"/>
<path d="M207.329 137.574C212.212 137.574 216.17 133.623 216.17 128.75C216.17 123.877 212.212 119.926 207.329 119.926C202.447 119.926 198.488 123.877 198.488 128.75C198.488 133.623 202.447 137.574 207.329 137.574Z" fill="#FFB8B8"/>
<path d="M194.896 127.903C194.899 125.379 195.905 122.959 197.693 121.174C199.481 119.389 201.906 118.385 204.435 118.382H206.235C208.764 118.385 211.188 119.389 212.976 121.174C214.765 122.959 215.77 125.379 215.773 127.903V128.083H211.97L210.673 124.457L210.413 128.083H208.447L207.793 126.253L207.662 128.083H194.896V127.903Z" fill="#2F2E41"/>
<path d="M206.459 138.793C206.281 138.552 206.174 138.265 206.152 137.966C206.129 137.667 206.192 137.367 206.332 137.102C208.24 133.481 210.91 126.791 207.366 122.664L207.111 122.368H217.401V137.788L208.053 139.435C207.958 139.451 207.863 139.46 207.766 139.46C207.511 139.46 207.26 139.4 207.032 139.284C206.805 139.168 206.609 139 206.459 138.793Z" fill="#2F2E41"/>
<path d="M165.029 75.1275C157.829 69.063 149.018 65.2182 139.668 64.0609C130.318 62.9036 120.833 64.4838 112.366 68.6091C103.9 72.7344 96.817 79.227 91.98 87.2969C87.143 95.3667 84.7602 104.666 85.1217 114.063C85.4831 123.459 88.5731 132.549 94.0157 140.225C99.4583 147.901 107.019 153.832 115.777 157.298C124.536 160.763 134.115 161.613 143.348 159.743C152.581 157.874 161.071 153.366 167.785 146.768L227.4 196.977C228.307 197.742 229.481 198.117 230.665 198.018C231.849 197.919 232.945 197.354 233.711 196.449C234.478 195.544 234.853 194.371 234.754 193.19C234.655 192.009 234.09 190.915 233.183 190.149L233.176 190.144L173.561 139.936C180.487 130.015 183.451 117.87 181.872 105.882C180.294 93.8936 174.287 82.9257 165.029 75.1275ZM161.186 135.101C156.542 140.595 150.37 144.59 143.451 146.583C136.531 148.575 129.175 148.475 122.313 146.295C115.45 144.114 109.39 139.952 104.898 134.334C100.406 128.715 97.6833 121.894 97.0754 114.731C96.4674 107.569 98.001 100.387 101.482 94.0947C104.964 87.8023 110.236 82.6815 116.633 79.3799C123.03 76.0783 130.264 74.7443 137.421 75.5465C144.578 76.3487 151.335 79.251 156.839 83.8866H156.839C160.494 86.9645 163.505 90.7307 165.702 94.9702C167.898 99.2097 169.236 103.839 169.64 108.595C170.043 113.351 169.505 118.139 168.054 122.687C166.604 127.235 164.27 131.453 161.186 135.101Z" fill="#3F3D56"/>
<path opacity="0.3" d="M109.876 139.44C102.89 133.556 98.3773 125.266 97.2327 116.214C96.088 107.163 98.3954 98.0134 103.697 90.5818C103.001 91.2816 102.328 92.0145 101.678 92.7805C98.594 96.4282 96.2603 100.646 94.8099 105.194C93.3595 109.742 92.8207 114.531 93.2244 119.286C93.6281 124.042 94.9662 128.672 97.1625 132.911C99.3588 137.151 102.37 140.917 106.025 143.995C109.679 147.073 113.905 149.402 118.462 150.85C123.018 152.297 127.816 152.835 132.58 152.432C137.345 152.029 141.983 150.694 146.231 148.502C150.478 146.309 154.252 143.304 157.335 139.656C157.984 138.889 158.594 138.104 159.167 137.3C152.72 143.766 144.071 147.575 134.94 147.972C125.808 148.368 116.861 145.323 109.876 139.44Z" fill="black"/>
<path d="M210.168 176.799C210.682 176.925 211.217 176.936 211.736 176.833C212.255 176.73 212.745 176.514 213.171 176.201C213.598 175.888 213.95 175.486 214.204 175.022C214.458 174.559 214.606 174.045 214.64 173.518L227.034 170.085L221.996 165.7L210.998 169.633C210.108 169.636 209.249 169.964 208.584 170.557C207.92 171.15 207.496 171.965 207.394 172.848C207.292 173.731 207.517 174.622 208.029 175.35C208.54 176.078 209.301 176.594 210.168 176.799Z" fill="#FFB8B8"/>
<path d="M215.319 174.982L214.565 167.83L224.918 162.129L218.168 153.973L219.27 144.811L222.012 143.638L222.098 143.748C223.391 145.408 234.734 160.016 234.734 161.822C234.734 163.677 232.564 169.124 229.595 170.605C226.731 172.035 215.978 174.812 215.521 174.93L215.319 174.982Z" fill="#2F2E41"/>
<path d="M269.039 260.891H131.897C131.801 260.891 131.71 260.854 131.642 260.786C131.575 260.719 131.537 260.627 131.537 260.532C131.537 260.437 131.575 260.345 131.642 260.278C131.71 260.211 131.801 260.173 131.897 260.173H269.039C269.135 260.173 269.226 260.211 269.294 260.278C269.361 260.345 269.399 260.437 269.399 260.532C269.399 260.627 269.361 260.719 269.294 260.786C269.226 260.854 269.135 260.891 269.039 260.891Z" fill="#CCCCCC"/>
</g>
</svg>
