<svg width="270" height="270" viewBox="0 0 270 270" fill="none" xmlns="http://www.w3.org/2000/svg">
<mask id="mask0_18_463" style="mask-type:alpha" maskUnits="userSpaceOnUse" x="0" y="0" width="270" height="270">
<circle cx="134.725" cy="134.725" r="134.725" fill="#F2F2F2"/>
</mask>
<g mask="url(#mask0_18_463)">
<rect x="-86" y="-39" width="420" height="353" fill="#F2F2F2"/>
</g>
<g clip-path="url(#clip0_18_463)">
<path d="M35.0832 216.474C38.0933 222.052 44.4816 224.446 44.4816 224.446C44.4816 224.446 45.9897 217.797 42.9797 212.22C39.9697 206.642 33.5814 204.248 33.5814 204.248C33.5814 204.248 32.0732 210.896 35.0832 216.474Z" fill="#2F2E41"/>
<path d="M37.1521 214.639C42.5864 217.906 44.6794 224.394 44.6794 224.394C44.6794 224.394 37.9615 225.586 32.5272 222.32C27.0929 219.053 25 212.564 25 212.564C25 212.564 31.7178 211.372 37.1521 214.639Z" fill="#023047"/>
<path d="M158.99 52.6892H125.084V53.1732H158.99V52.6892Z" fill="#F2F2F2"/>
<path d="M149.787 53.0522H149.302V57.529H149.787V53.0522Z" fill="#F2F2F2"/>
<path d="M135.013 53.0522H134.529V57.529H135.013V53.0522Z" fill="#F2F2F2"/>
<path d="M176.185 75.92H142.279V76.404H176.185V75.92Z" fill="#F2F2F2"/>
<path d="M151.966 71.5643H151.482V76.0411H151.966V71.5643Z" fill="#F2F2F2"/>
<path d="M166.74 71.5643H166.255V76.0411H166.74V71.5643Z" fill="#F2F2F2"/>
<path d="M221.232 86.8094H187.326V87.2934H221.232V86.8094Z" fill="#F2F2F2"/>
<path d="M197.013 82.4537H196.529V86.9305H197.013V82.4537Z" fill="#F2F2F2"/>
<path d="M211.787 82.4537H211.302V86.9305H211.787V82.4537Z" fill="#F2F2F2"/>
<path d="M217.841 199.092H183.935V199.576H217.841V199.092Z" fill="#F2F2F2"/>
<path d="M193.623 194.736H193.138V199.213H193.623V194.736Z" fill="#F2F2F2"/>
<path d="M208.396 194.736H207.912V199.213H208.396V194.736Z" fill="#F2F2F2"/>
<path d="M159.959 121.414H126.052V121.898H159.959V121.414Z" fill="#F2F2F2"/>
<path d="M135.74 117.058H135.255V121.535H135.74V117.058Z" fill="#F2F2F2"/>
<path d="M150.513 117.058H150.029V121.535H150.513V117.058Z" fill="#F2F2F2"/>
<path d="M170.615 179.733H136.709V180.217H170.615V179.733Z" fill="#F2F2F2"/>
<path d="M146.396 175.377H145.912V179.854H146.396V175.377Z" fill="#F2F2F2"/>
<path d="M161.17 175.377H160.685V179.854H161.17V175.377Z" fill="#F2F2F2"/>
<path d="M224.865 162.068H190.959V162.552H224.865V162.068Z" fill="#F2F2F2"/>
<path d="M200.646 157.712H200.162V162.189H200.646V157.712Z" fill="#F2F2F2"/>
<path d="M215.42 157.712H214.935V162.189H215.42V157.712Z" fill="#F2F2F2"/>
<path d="M112.686 213.92H55.3398V213.508H112.274V193.515H60.1608L57.6292 188.245L58.0012 188.067L60.4204 193.103H112.686V213.92Z" fill="#2F2E41"/>
<path d="M62.9722 224.02C65.3647 224.02 67.3041 222.082 67.3041 219.691C67.3041 217.301 65.3647 215.363 62.9722 215.363C60.5797 215.363 58.6403 217.301 58.6403 219.691C58.6403 222.082 60.5797 224.02 62.9722 224.02Z" fill="#3F3D56"/>
<path d="M105.673 224.02C108.065 224.02 110.005 222.082 110.005 219.691C110.005 217.301 108.065 215.363 105.673 215.363C103.28 215.363 101.341 217.301 101.341 219.691C101.341 222.082 103.28 224.02 105.673 224.02Z" fill="#3F3D56"/>
<path d="M156.006 130.444C157.487 130.444 158.688 129.245 158.688 127.765C158.688 126.285 157.487 125.085 156.006 125.085C154.525 125.085 153.324 126.285 153.324 127.765C153.324 129.245 154.525 130.444 156.006 130.444Z" fill="#3F3D56"/>
<path d="M118.82 186.713H54.362L40.4149 141.162H133.183L133.099 141.43L118.82 186.713ZM54.6672 186.301H118.517L132.621 141.574H40.9725L54.6672 186.301Z" fill="#2F2E41"/>
<path d="M113.788 184.343H57.1727L44.9223 143.945H126.404L126.33 144.182L113.788 184.343Z" fill="#F2F2F2"/>
<path d="M134.339 137.093L133.94 136.987L136.663 126.734H152.499V127.146H136.98L134.339 137.093Z" fill="#2F2E41"/>
<path d="M128.548 154.972H44.922V155.384H128.548V154.972Z" fill="#2F2E41"/>
<path d="M123.759 170.159H49.5721V170.571H123.759V170.159Z" fill="#2F2E41"/>
<path d="M87.0042 141.368H86.5916V186.507H87.0042V141.368Z" fill="#2F2E41"/>
<path d="M105.475 141.355L102.514 186.493L102.926 186.52L105.887 141.382L105.475 141.355Z" fill="#2F2E41"/>
<path d="M68.1289 141.355L67.7171 141.382L70.6615 186.52L71.0733 186.494L68.1289 141.355Z" fill="#2F2E41"/>
<path d="M242 224.281H25V224.765H242V224.281Z" fill="#2F2E41"/>
<path d="M169.201 58.9732C169.201 58.9732 172.741 69.0414 170.563 70.5904C168.384 72.1393 177.916 84.7891 177.916 84.7891L189.354 81.6912L183.09 71.1067C183.09 71.1067 182.273 60.5222 182.273 58.9732C182.273 57.4243 169.201 58.9732 169.201 58.9732Z" fill="#A0616A"/>
<path opacity="0.1" d="M169.201 58.9732C169.201 58.9732 172.741 69.0414 170.563 70.5904C168.384 72.1393 177.916 84.7891 177.916 84.7891L189.354 81.6912L183.09 71.1067C183.09 71.1067 182.273 60.5222 182.273 58.9732C182.273 57.4243 169.201 58.9732 169.201 58.9732Z" fill="black"/>
<path d="M163.258 130.741C163.258 130.741 162.225 143.649 163.258 150.362C164.292 157.074 165.842 175.661 165.842 175.661C165.842 175.661 165.842 210.771 171.526 211.287C177.211 211.803 181.345 212.32 181.861 210.254C182.378 208.189 179.278 207.157 180.828 206.124C182.378 205.091 182.895 201.477 180.828 197.347C178.761 193.216 180.828 151.394 180.828 151.394L190.646 177.726C190.646 177.726 191.679 199.412 192.713 202.51C193.746 205.608 191.679 211.287 195.297 211.803C198.914 212.32 203.048 209.222 205.115 208.189C207.182 207.157 202.014 207.157 203.048 206.64C204.081 206.124 207.182 204.575 206.148 204.059C205.115 203.542 204.081 178.759 204.081 178.759C204.081 178.759 201.239 125.836 197.622 123.771C194.005 121.706 191.679 125.263 191.679 125.263L163.258 130.741Z" fill="#2F2E41"/>
<path d="M172.56 209.222V213.352C172.56 213.352 167.909 224.581 172.56 224.581C177.211 224.581 180.828 225.744 180.828 224.195V210.255L172.56 209.222Z" fill="#2F2E41"/>
<path d="M203.048 209.215V213.345C203.048 213.345 207.699 224.573 203.048 224.573C198.397 224.573 194.78 225.737 194.78 224.188V210.247L203.048 209.215Z" fill="#2F2E41"/>
<path d="M176.435 66.4599C181.572 66.4599 185.737 62.299 185.737 57.1662C185.737 52.0334 181.572 47.8724 176.435 47.8724C171.298 47.8724 167.134 52.0334 167.134 57.1662C167.134 62.299 171.298 66.4599 176.435 66.4599Z" fill="#A0616A"/>
<path d="M173.593 74.4628C173.593 74.4628 176.177 82.2075 180.311 80.6586L184.445 79.1096L191.679 128.676C191.679 128.676 185.995 136.937 177.727 131.774C169.459 126.611 173.593 74.4628 173.593 74.4628Z" fill="#023047"/>
<path d="M180.828 72.9138L183.153 68.0088C183.153 68.0088 196.847 74.4628 198.914 76.528C200.981 78.5933 200.981 81.6912 200.981 81.6912L197.364 94.5992C197.364 94.5992 198.397 122.997 198.397 124.029C198.397 125.062 202.014 130.742 199.431 128.676C196.847 126.611 196.33 124.546 194.263 127.644C192.196 130.742 187.545 134.356 187.545 134.356L180.828 72.9138Z" fill="#3F3D56"/>
<path d="M198.914 110.089L197.364 124.546C197.364 124.546 188.062 132.807 190.129 133.323C192.196 133.839 193.23 131.774 193.23 131.774C193.23 131.774 196.847 135.388 198.914 133.323C200.981 131.258 206.148 111.638 206.148 111.638L198.914 110.089Z" fill="#A0616A"/>
<path d="M176.634 44.0314C174.572 43.9578 172.365 43.9213 170.626 45.0316C169.826 45.5888 169.125 46.2751 168.55 47.0623C166.857 49.2011 165.394 51.8922 166.023 54.5458L166.753 54.2612C166.753 54.9695 166.596 55.669 166.292 56.309C166.395 56.0101 166.739 56.4933 166.647 56.7956L165.842 59.4334C167.165 58.9489 168.811 59.93 169.012 61.3233C169.104 58.2594 169.422 54.7461 171.91 52.9521C173.164 52.0474 174.752 51.7712 176.279 51.526C177.688 51.2997 179.166 51.084 180.515 51.5475C181.865 52.011 183.014 53.3902 182.708 54.7831C183.331 54.5689 184.027 55.0022 184.334 55.5837C184.642 56.1652 184.658 56.8511 184.667 57.5087C185.331 57.9772 186.086 57.047 186.356 56.2816C186.991 54.485 187.555 52.5725 187.213 50.6982C186.871 48.8239 185.342 47.0326 183.436 47.0263C183.667 46.7723 183.79 46.4383 183.78 46.0949L182.208 45.9622C182.607 45.9058 182.974 45.7125 183.246 45.4155C182.615 46.1092 177.654 44.0679 176.634 44.0314Z" fill="#2F2E41"/>
<path d="M176.177 71.3649C176.177 71.3649 171.97 67.246 170.457 67.4983C168.943 67.7506 166.876 71.3649 166.876 71.3649C166.876 71.3649 154.474 75.4954 154.991 79.6259C155.507 83.7565 161.191 103.893 161.191 103.893C161.191 103.893 165.842 128.16 161.708 130.741C157.574 133.323 181.345 140.035 181.861 136.937C182.378 133.839 183.412 102.86 181.861 98.2134C180.311 93.5665 176.177 71.3649 176.177 71.3649Z" fill="#3F3D56"/>
<path d="M194.263 79.626H200.653C200.653 79.626 205.115 99.2461 205.631 101.311C206.148 103.377 207.182 113.187 206.665 113.187C206.148 113.187 195.813 111.121 195.813 112.67L194.263 79.626Z" fill="#3F3D56"/>
<path d="M194.047 128.212H169.586C167.199 117.24 166.999 106.639 169.586 96.5114H194.047C190.099 106.457 189.853 116.985 194.047 128.212Z" fill="#F2F2F2"/>
<path d="M159.641 114.736L166.876 117.834C166.876 117.834 180.828 119.899 180.828 114.219C180.828 108.54 166.876 111.638 166.876 111.638L162.225 110.152L159.641 114.736Z" fill="#A0616A"/>
<path d="M161.191 76.5281L154.991 78.077L150.34 105.442C150.34 105.442 148.79 112.67 151.373 113.187C153.957 113.703 161.191 117.834 161.191 117.834C161.191 117.834 162.225 110.089 164.292 110.089L159.124 105.958L162.225 87.8871L161.191 76.5281Z" fill="#3F3D56"/>
<path d="M73.4977 129.399H39.5914V129.883H73.4977V129.399Z" fill="#F2F2F2"/>
<path d="M49.2789 125.044H48.7946V129.52H49.2789V125.044Z" fill="#F2F2F2"/>
<path d="M64.0524 125.044H63.568V129.52H64.0524V125.044Z" fill="#F2F2F2"/>
<path d="M85.3649 57.771H51.4586V58.255H85.3649V57.771Z" fill="#F2F2F2"/>
<path d="M76.1617 58.1339H75.6774V62.6107H76.1617V58.1339Z" fill="#F2F2F2"/>
<path d="M61.3883 58.1339H60.9039V62.6107H61.3883V58.1339Z" fill="#F2F2F2"/>
<path d="M119.513 105.443H85.6071V105.927H119.513V105.443Z" fill="#F2F2F2"/>
<path d="M110.31 105.806H109.826V110.282H110.31V105.806Z" fill="#F2F2F2"/>
<path d="M95.5367 105.806H95.0524V110.282H95.5367V105.806Z" fill="#F2F2F2"/>
<path d="M61.8727 105.201H27.9664V105.685H61.8727V105.201Z" fill="#F2F2F2"/>
<path d="M52.6696 105.564H52.1852V110.04H52.6696V105.564Z" fill="#F2F2F2"/>
<path d="M37.8961 105.564H37.4117V110.04H37.8961V105.564Z" fill="#F2F2F2"/>
<path d="M102.56 81.0018H68.6539V81.4858H102.56V81.0018Z" fill="#F2F2F2"/>
<path d="M78.3414 76.646H77.8571V81.1228H78.3414V76.646Z" fill="#F2F2F2"/>
<path d="M93.1149 76.646H92.6305V81.1228H93.1149V76.646Z" fill="#F2F2F2"/>
</g>
<defs>
<clipPath id="clip0_18_463">
<rect width="217" height="181" fill="white" transform="translate(25 44)"/>
</clipPath>
</defs>
</svg>
