<svg width="270" height="270" viewBox="0 0 270 270" fill="none" xmlns="http://www.w3.org/2000/svg">
<mask id="mask0_18_457" style="mask-type:alpha" maskUnits="userSpaceOnUse" x="0" y="0" width="270" height="270">
<circle cx="134.725" cy="134.725" r="134.725" fill="#F2F2F2"/>
</mask>
<g mask="url(#mask0_18_457)">
<rect x="-39" y="-28" width="373" height="306" fill="#F2F2F2"/>
<path d="M102.959 60.0795L80.094 140.725L223.43 181.153L246.295 100.507L102.959 60.0795Z" fill="#3F3D56"/>
<path d="M105.435 62.6396C106.091 62.6396 106.622 62.1095 106.622 61.4556C106.622 60.8017 106.091 60.2716 105.435 60.2716C104.779 60.2716 104.248 60.8017 104.248 61.4556C104.248 62.1095 104.779 62.6396 105.435 62.6396Z" fill="#023047"/>
<path d="M109.091 65.6676C109.746 65.6676 110.278 65.1375 110.278 64.4835C110.278 63.8296 109.746 63.2994 109.091 63.2994C108.435 63.2994 107.903 63.8296 107.903 64.4835C107.903 65.1375 108.435 65.6676 109.091 65.6676Z" fill="#023047"/>
<path d="M112.746 66.6986C113.402 66.6986 113.933 66.1685 113.933 65.5146C113.933 64.8607 113.402 64.3306 112.746 64.3306C112.09 64.3306 111.559 64.8607 111.559 65.5146C111.559 66.1685 112.09 66.6986 112.746 66.6986Z" fill="#023047"/>
<path d="M179.029 111.252C177.11 110.89 175.137 110.937 173.237 111.388C173.79 109.494 173.93 107.503 173.647 105.551C171.69 106.257 169.92 107.396 168.469 108.883C168.014 106.859 167.104 104.963 165.808 103.34C164.541 104.856 163.615 106.624 163.092 108.527C161.711 107.15 160.054 106.079 158.229 105.385C158.229 105.385 157.364 109.771 159.446 113.369C161.298 116.572 164.858 118.071 165.618 118.362L165.636 118.383L165.646 118.372C165.723 118.401 165.766 118.416 165.766 118.416C165.766 118.416 165.783 118.332 165.805 118.182C165.819 118.165 165.833 118.148 165.848 118.129C165.851 118.153 165.853 118.175 165.856 118.196C165.797 118.336 165.766 118.416 165.766 118.416C165.766 118.416 165.811 118.426 165.892 118.442L165.894 118.456L165.921 118.447C166.722 118.596 170.541 119.179 173.801 117.418C177.463 115.439 179.029 111.252 179.029 111.252Z" fill="#023047"/>
<path d="M171.926 100.05C173.63 100.05 175.012 98.6715 175.012 96.9713C175.012 95.271 173.63 93.8927 171.926 93.8927C170.221 93.8927 168.839 95.271 168.839 96.9713C168.839 98.6715 170.221 100.05 171.926 100.05Z" fill="#023047"/>
<path d="M210.68 136.941L117.924 110.779L117.353 112.792L210.11 138.953L210.68 136.941Z" fill="#023047"/>
<path d="M139.755 127.764L123.763 123.254L119.24 139.204L135.233 143.715L139.755 127.764Z" fill="#023047"/>
<path d="M169.456 136.141L153.463 131.631L148.941 147.581L164.933 152.092L169.456 136.141Z" fill="#023047"/>
<path d="M199.156 144.518L183.164 140.008L178.641 155.958L194.634 160.469L199.156 144.518Z" fill="#023047"/>
<path d="M132.272 146.325L120.392 142.975L120.005 144.342L131.885 147.693L132.272 146.325Z" fill="#023047"/>
<path d="M161.973 154.702L150.092 151.351L149.705 152.719L161.585 156.069L161.973 154.702Z" fill="#023047"/>
<path d="M191.673 163.079L179.793 159.728L179.405 161.095L191.285 164.446L191.673 163.079Z" fill="#023047"/>
<path d="M60.0208 171.934C103.902 171.934 139.475 170.622 139.475 169.004C139.475 167.386 103.902 166.075 60.0208 166.075C16.1396 166.075 -19.4332 167.386 -19.4332 169.004C-19.4332 170.622 16.1396 171.934 60.0208 171.934Z" fill="#D0CDE1"/>
<path d="M201.171 205.14C235.318 205.14 263 203.828 263 202.21C263 200.592 235.318 199.28 201.171 199.28C167.024 199.28 139.343 200.592 139.343 202.21C139.343 203.828 167.024 205.14 201.171 205.14Z" fill="#D0CDE1"/>
<path d="M170.847 179.468H188.684V186.909H178.306V194.349H188.685V201.788H170.847V179.468ZM192.252 179.468H210.09V185.938H199.712V187.232H210.09V202.112H192.253V195.318H202.631V194.024H192.252V179.468H192.252ZM213.658 179.468H231.496V185.938H221.118V187.232H231.496V202.112H213.658V195.318H224.036V194.024H213.658V179.468H213.658Z" fill="#3F3D56"/>
<path d="M14.9473 145.426H22.3059V152.677H29.0373V145.426H36.3963V167.384H29.0378V160.031H22.3063V167.384H14.9478V145.426H14.9473ZM46.0726 152.708H39.5954V145.426H59.9137V152.708H53.4325V167.384H46.0739V152.708H46.0726ZM63.1382 145.426H70.8109L75.5307 153.141L80.246 145.426H87.9219V167.384H80.5933V156.5L75.5307 164.308H75.4038L70.338 156.5V167.384H63.1382V145.426ZM91.5839 145.426H98.9447V160.126H109.293V167.384H91.5835V145.426H91.5839Z" fill="#3F3D56"/>
</g>
</svg>
