<svg width="270" height="270" viewBox="0 0 270 270" fill="none" xmlns="http://www.w3.org/2000/svg">
<mask id="mask0_18_460" style="mask-type:alpha" maskUnits="userSpaceOnUse" x="0" y="0" width="270" height="270">
<circle cx="134.725" cy="134.725" r="134.725" fill="#F2F2F2"/>
</mask>
<g mask="url(#mask0_18_460)">
<rect x="-35" y="-6" width="369" height="307" fill="#F2F2F2"/>
<path d="M229.34 88.2344H116.25V111.426H229.34V88.2344Z" stroke="#3F3D56" stroke-miterlimit="10"/>
<path d="M48.7625 121.177C51.9874 116.155 58.0932 112.766 65.0945 112.766C75.4581 112.766 83.8595 120.191 83.8595 129.35C83.8595 135.205 80.4252 140.352 75.2395 143.303" stroke="#3F3D56" stroke-miterlimit="10"/>
<path d="M221.334 92.7229H108.243V115.915H221.334V92.7229Z" fill="#023047"/>
<path d="M36.7537 70.5913C37.721 70.5913 38.5051 69.8097 38.5051 68.8456C38.5051 67.8814 37.721 67.0999 36.7537 67.0999C35.7864 67.0999 35.0023 67.8814 35.0023 68.8456C35.0023 69.8097 35.7864 70.5913 36.7537 70.5913Z" fill="#023047"/>
<path d="M42.7585 70.5913C43.7258 70.5913 44.5099 69.8097 44.5099 68.8456C44.5099 67.8814 43.7258 67.0999 42.7585 67.0999C41.7912 67.0999 41.0071 67.8814 41.0071 68.8456C41.0071 69.8097 41.7912 70.5913 42.7585 70.5913Z" fill="#023047"/>
<path d="M48.7633 70.5913C49.7306 70.5913 50.5147 69.8097 50.5147 68.8456C50.5147 67.8814 49.7306 67.0999 48.7633 67.0999C47.796 67.0999 47.0119 67.8814 47.0119 68.8456C47.0119 69.8097 47.796 70.5913 48.7633 70.5913Z" fill="#023047"/>
<path d="M242.168 64.3568H32V200.514H242.168V64.3568Z" stroke="#3F3D56" stroke-miterlimit="10"/>
<path d="M32 71.9218H242.168" stroke="#3F3D56" stroke-miterlimit="10"/>
<path d="M37.2541 69.843C38.2214 69.843 39.0055 69.0615 39.0055 68.0974C39.0055 67.1333 38.2214 66.3518 37.2541 66.3518C36.2868 66.3518 35.5027 67.1333 35.5027 68.0974C35.5027 69.0615 36.2868 69.843 37.2541 69.843Z" stroke="#3F3D56" stroke-miterlimit="10"/>
<path d="M43.2589 69.843C44.2262 69.843 45.0103 69.0615 45.0103 68.0974C45.0103 67.1333 44.2262 66.3518 43.2589 66.3518C42.2916 66.3518 41.5075 67.1333 41.5075 68.0974C41.5075 69.0615 42.2916 69.843 43.2589 69.843Z" stroke="#3F3D56" stroke-miterlimit="10"/>
<path d="M49.2637 69.843C50.231 69.843 51.0151 69.0615 51.0151 68.0974C51.0151 67.1333 50.231 66.3518 49.2637 66.3518C48.2964 66.3518 47.5123 67.1333 47.5123 68.0974C47.5123 69.0615 48.2964 69.843 49.2637 69.843Z" stroke="#3F3D56" stroke-miterlimit="10"/>
<path d="M97.9843 71.9218V200.708" stroke="#3F3D56" stroke-miterlimit="10"/>
<path d="M158.409 135.241H121.629V140.228H158.409V135.241Z" fill="#F2F2F2"/>
<path d="M216.205 135.241H179.425V140.228H216.205V135.241Z" fill="#F2F2F2"/>
<path d="M160.41 132.747H123.631V137.735H160.41V132.747Z" stroke="#3F3D56" stroke-miterlimit="10"/>
<path d="M158.409 173.894H121.629V178.881H158.409V173.894Z" fill="#F2F2F2"/>
<path d="M160.41 171.4H123.631V176.387H160.41V171.4Z" stroke="#3F3D56" stroke-miterlimit="10"/>
<path d="M216.33 154.068H121.754V159.056H216.33V154.068Z" fill="#F2F2F2"/>
<path d="M218.331 152.074H123.756V157.061H218.331V152.074Z" stroke="#3F3D56" stroke-miterlimit="10"/>
<path d="M218.206 132.747H181.427V137.735H218.206V132.747Z" stroke="#3F3D56" stroke-miterlimit="10"/>
<path d="M228.878 159.693C229.078 159.693 229.241 159.531 229.241 159.331C229.241 159.131 229.078 158.968 228.878 158.968C228.677 158.968 228.514 159.131 228.514 159.331C228.514 159.531 228.677 159.693 228.878 159.693Z" fill="#F2F2F2"/>
<path d="M226.404 164.352C226.605 164.352 226.768 164.19 226.768 163.989C226.768 163.789 226.605 163.627 226.404 163.627C226.203 163.627 226.04 163.789 226.04 163.989C226.04 164.19 226.203 164.352 226.404 164.352Z" fill="#F2F2F2"/>
<path d="M246.165 166.046C246.366 166.046 246.529 165.883 246.529 165.683C246.529 165.483 246.366 165.321 246.165 165.321C245.964 165.321 245.801 165.483 245.801 165.683C245.801 165.883 245.964 166.046 246.165 166.046Z" fill="#F2F2F2"/>
<path d="M248.222 172.628C248.423 172.628 248.586 172.465 248.586 172.265C248.586 172.065 248.423 171.902 248.222 171.902C248.021 171.902 247.859 172.065 247.859 172.265C247.859 172.465 248.021 172.628 248.222 172.628Z" fill="#F2F2F2"/>
<path d="M247.421 170.775C247.622 170.775 247.785 170.613 247.785 170.413C247.785 170.212 247.622 170.05 247.421 170.05C247.22 170.05 247.057 170.212 247.057 170.413C247.057 170.613 247.22 170.775 247.421 170.775Z" fill="#F2F2F2"/>
<path d="M246.725 168.411C246.926 168.411 247.089 168.248 247.089 168.048C247.089 167.848 246.926 167.685 246.725 167.685C246.525 167.685 246.362 167.848 246.362 168.048C246.362 168.248 246.525 168.411 246.725 168.411Z" fill="#F2F2F2"/>
<path d="M227.559 161.899C227.76 161.899 227.922 161.737 227.922 161.536C227.922 161.336 227.76 161.174 227.559 161.174C227.358 161.174 227.195 161.336 227.195 161.536C227.195 161.737 227.358 161.899 227.559 161.899Z" fill="#F2F2F2"/>
<path d="M224.961 166.771C225.162 166.771 225.325 166.609 225.325 166.408C225.325 166.208 225.162 166.046 224.961 166.046C224.76 166.046 224.597 166.208 224.597 166.408C224.597 166.609 224.76 166.771 224.961 166.771Z" fill="#F2F2F2"/>
<path d="M42.293 132.84C42.293 139.357 46.5885 144.988 52.8173 147.657L43.9097 126.141C42.8497 128.216 42.2958 130.511 42.293 132.84ZM73.5727 132.01C73.5727 129.975 72.7437 128.566 72.0327 127.469C71.0862 126.113 70.1993 124.965 70.1993 123.609C70.1993 122.095 71.5008 120.687 73.3346 120.687C73.4174 120.687 73.496 120.696 73.577 120.7C69.9929 117.865 65.5422 116.339 60.9666 116.378C54.4429 116.378 48.7033 119.329 45.3644 123.799C45.8025 123.81 46.2157 123.818 46.5661 123.818C48.5193 123.818 51.5427 123.609 51.5427 123.609C52.5494 123.557 52.668 124.86 51.6628 124.965C51.6628 124.965 50.6509 125.07 49.5252 125.122L56.3254 142.954L60.4123 132.149L57.5025 125.122C56.497 125.07 55.5444 124.965 55.5444 124.965C54.5381 124.913 54.656 123.557 55.6623 123.609C55.6623 123.609 58.7462 123.818 60.5811 123.818C62.5339 123.818 65.5577 123.609 65.5577 123.609C66.565 123.556 66.6833 124.86 65.6774 124.965C65.6774 124.965 64.6637 125.07 63.5402 125.122L70.2885 142.819L72.1507 137.332C72.9583 135.054 73.5727 133.419 73.5727 132.01H73.5727Z" fill="#023047"/>
<path d="M61.2942 134.28L55.6915 148.633C59.4671 149.609 63.4409 149.519 67.1677 148.371C67.116 148.3 67.0715 148.224 67.0348 148.144L61.2942 134.28ZM77.3519 124.942C77.4367 125.502 77.4788 126.068 77.4777 126.634C77.4777 128.305 77.1238 130.183 76.0578 132.531L70.3538 147.07C75.9054 144.216 79.6395 138.914 79.6395 132.84C79.6347 130.046 78.8421 127.309 77.3519 124.942L77.3519 124.942Z" fill="#023047"/>
</g>
</svg>
